<svg xmlns="http://www.w3.org/2000/svg" width="440" height="867" viewBox="0 0 440 867">
  <path id="Trazado_152303" data-name="Trazado 152303" d="M0,0H440V867H0Z" fill="#4e3e6d"/>
  <g id="Grupo_95503" data-name="Grupo 95503" transform="translate(-265 -1800)">
    <g id="Grupo_95502" data-name="Grupo 95502" transform="translate(-4.977)">
      <g id="Grupo_95501" data-name="Grupo 95501" transform="translate(-265.417 1521.479)">
        <g id="Grupo_95459" data-name="Grupo 95459" transform="translate(554.624 482.521)" style="isolation: isolate">
          <circle id="Elipse_5091" data-name="Elipse 5091" cx="43.394" cy="43.394" r="43.394" fill="#ff904d"/>
        </g>
        <g id="Grupo_95460" data-name="Grupo 95460" transform="translate(554.393 582.442)" style="isolation: isolate">
          <rect id="Rectángulo_24416" data-name="Rectángulo 24416" width="108.485" height="44.317" fill="#7b69a3"/>
        </g>
        <g id="Grupo_95461" data-name="Grupo 95461" transform="translate(684.807 616.373)" style="isolation: isolate">
          <rect id="Rectángulo_24417" data-name="Rectángulo 24417" width="140.758" height="33.7" fill="#2acc72"/>
        </g>
        <g id="Grupo_95462" data-name="Grupo 95462" transform="translate(554.624 736.861)" style="isolation: isolate">
          <rect id="Rectángulo_24418" data-name="Rectángulo 24418" width="108.024" height="44.779" fill="#2ed076"/>
        </g>
        <g id="Grupo_95463" data-name="Grupo 95463" transform="translate(673.266 777.591)" style="isolation: isolate">
          <rect id="Rectángulo_24419" data-name="Rectángulo 24419" width="76.171" height="31.392" fill="#2ed076"/>
        </g>
        <g id="Grupo_95464" data-name="Grupo 95464" transform="translate(554.624 800.798)" style="isolation: isolate">
          <rect id="Rectángulo_24420" data-name="Rectángulo 24420" width="108.024" height="45.241" fill="#ff555b"/>
        </g>
        <g id="Grupo_95465" data-name="Grupo 95465" transform="translate(565.242 855.733)" style="isolation: isolate">
          <path id="Trazado_152320" data-name="Trazado 152320" d="M43.394,0A43.394,43.394,0,1,1,0,43.394,43.394,43.394,0,0,1,43.394,0Z" fill="#47b9fd"/>
        </g>
        <g id="Grupo_95469" data-name="Grupo 95469" transform="translate(652.838 656.944)">
          <g id="Grupo_95466" data-name="Grupo 95466">
            <path id="Trazado_152231" data-name="Trazado 152231" d="M796.049,683.6h-2.183V644.493H644.578V642.31H796.049Z" transform="translate(-644.578 -642.31)" fill="#fff"/>
          </g>
          <g id="Grupo_95468" data-name="Grupo 95468" transform="translate(146.163 40.641)">
            <g id="Grupo_95467" data-name="Grupo 95467">
              <path id="Trazado_152232" data-name="Trazado 152232" d="M786.91,679.568l-4.216,2.663-4.217-2.663v-.028h8.432Z" transform="translate(-778.477 -679.541)" fill="#fff"/>
            </g>
          </g>
        </g>
        <g id="Grupo_95470" data-name="Grupo 95470" transform="translate(553.818 637.073)" style="isolation: isolate">
          <path id="Trazado_152233" data-name="Trazado 152233" d="M554.816,637.495H673.264L614.04,720.357Z" transform="translate(-554.816 -637.495)" fill="#4db6ff"/>
        </g>
        <g id="Grupo_95474" data-name="Grupo 95474" transform="translate(840.148 712.679)">
          <g id="Grupo_95471" data-name="Grupo 95471" transform="translate(2.041 3.125)">
            <rect id="Rectángulo_24421" data-name="Rectángulo 24421" width="41.122" height="2.183" fill="#fff"/>
          </g>
          <g id="Grupo_95473" data-name="Grupo 95473">
            <g id="Grupo_95472" data-name="Grupo 95472">
              <path id="Trazado_152234" data-name="Trazado 152234" d="M818.835,693.368l-2.663,4.216,2.663,4.217h.028v-8.432Z" transform="translate(-816.173 -693.368)" fill="#fff"/>
            </g>
          </g>
        </g>
        <g id="Grupo_95478" data-name="Grupo 95478" transform="translate(795.77 733.86)">
          <g id="Grupo_95475" data-name="Grupo 95475" transform="translate(3.125)">
            <rect id="Rectángulo_24422" data-name="Rectángulo 24422" width="2.183" height="27.39" fill="#fff"/>
          </g>
          <g id="Grupo_95477" data-name="Grupo 95477" transform="translate(0 26.74)">
            <g id="Grupo_95476" data-name="Grupo 95476">
              <path id="Trazado_152235" data-name="Trazado 152235" d="M775.517,737.3l4.216,2.663,4.217-2.663v-.028h-8.432Z" transform="translate(-775.517 -737.268)" fill="#fff"/>
            </g>
          </g>
        </g>
        <g id="Grupo_95482" data-name="Grupo 95482" transform="translate(795.77 811.416)">
          <g id="Grupo_95479" data-name="Grupo 95479" transform="translate(3.125)">
            <rect id="Rectángulo_24423" data-name="Rectángulo 24423" width="2.183" height="27.389" fill="#fff"/>
          </g>
          <g id="Grupo_95481" data-name="Grupo 95481" transform="translate(0 26.739)">
            <g id="Grupo_95480" data-name="Grupo 95480">
              <path id="Trazado_152236" data-name="Trazado 152236" d="M775.517,808.343l4.216,2.663,4.217-2.663v-.027h-8.432Z" transform="translate(-775.517 -808.316)" fill="#fff"/>
            </g>
          </g>
        </g>
        <g id="Grupo_95486" data-name="Grupo 95486" transform="translate(841.707 789.071)">
          <g id="Grupo_95483" data-name="Grupo 95483" transform="translate(2.04 3.124)">
            <rect id="Rectángulo_24424" data-name="Rectángulo 24424" width="27.39" height="2.183" fill="#fff"/>
          </g>
          <g id="Grupo_95485" data-name="Grupo 95485">
            <g id="Grupo_95484" data-name="Grupo 95484">
              <path id="Trazado_152237" data-name="Trazado 152237" d="M820.263,763.35l-2.663,4.216,2.663,4.217h.027V763.35Z" transform="translate(-817.6 -763.35)" fill="#fff"/>
            </g>
          </g>
        </g>
        <g id="Grupo_95490" data-name="Grupo 95490" transform="translate(753.418 789.071)">
          <g id="Grupo_95487" data-name="Grupo 95487" transform="translate(2.04 3.124)">
            <rect id="Rectángulo_24425" data-name="Rectángulo 24425" width="27.39" height="2.183" fill="#fff"/>
          </g>
          <g id="Grupo_95489" data-name="Grupo 95489">
            <g id="Grupo_95488" data-name="Grupo 95488">
              <path id="Trazado_152238" data-name="Trazado 152238" d="M739.382,763.35l-2.663,4.216,2.663,4.217h.028V763.35Z" transform="translate(-736.719 -763.35)" fill="#fff"/>
            </g>
          </g>
        </g>
        <g id="Grupo_95491" data-name="Grupo 95491" transform="translate(877.865 688.158)" style="isolation: isolate">
          <path id="Trazado_152239" data-name="Trazado 152239" d="M889.871,670.9H850.724v53.55h39.147a26.775,26.775,0,1,0,0-53.55Z" transform="translate(-850.724 -670.904)" fill="#4cb5fd"/>
        </g>
        <g id="Grupo_95492" data-name="Grupo 95492" transform="translate(757.284 705.008)" style="isolation: isolate">
          <rect id="Rectángulo_24426" data-name="Rectángulo 24426" width="78.017" height="32.315" fill="#ff5164"/>
        </g>
        <g id="Grupo_95493" data-name="Grupo 95493" transform="translate(872.136 776.648)" style="isolation: isolate">
          <path id="Trazado_152240" data-name="Trazado 152240" d="M917.531,751.97H845.476v33.277h72.055c6.172,0,11.176-7.45,11.176-16.639S923.7,751.97,917.531,751.97Z" transform="translate(-845.476 -751.97)" fill="#f5d025"/>
        </g>
        <g id="Grupo_95494" data-name="Grupo 95494" transform="translate(860.96 776.648)" style="isolation: isolate">
          <ellipse id="Elipse_5093" data-name="Elipse 5093" cx="11.176" cy="16.639" rx="11.176" ry="16.639" fill="#ff924d"/>
        </g>
        <g id="Grupo_95495" data-name="Grupo 95495" transform="translate(771.133 768.483)" style="isolation: isolate">
          <path id="Trazado_152241" data-name="Trazado 152241" d="M768.182,744.49l-15.234,28.16,15.234,27.7h32.776l16.157-27.929L800.035,744.49Z" transform="translate(-752.948 -744.49)" fill="#ff9047"/>
        </g>
        <g id="Grupo_95499" data-name="Grupo 95499" transform="translate(664.956 828.435)">
          <g id="Grupo_95496" data-name="Grupo 95496" transform="translate(2.041 3.124)">
            <path id="Trazado_152242" data-name="Trazado 152242" d="M783.551,821.37h-2.183V804.457H657.549v-2.183h126Z" transform="translate(-657.549 -802.273)" fill="#fff"/>
          </g>
          <g id="Grupo_95498" data-name="Grupo 95498">
            <g id="Grupo_95497" data-name="Grupo 95497">
              <path id="Trazado_152243" data-name="Trazado 152243" d="M658.342,799.412l-2.663,4.216,2.663,4.217h.028v-8.432Z" transform="translate(-655.679 -799.412)" fill="#fff"/>
            </g>
          </g>
        </g>
        <g id="Grupo_95500" data-name="Grupo 95500" transform="translate(757.284 844.654)" style="isolation: isolate">
          <rect id="Rectángulo_24427" data-name="Rectángulo 24427" width="104.446" height="31.392" fill="#ff555b"/>
        </g>
      </g>
    </g>
    <path id="Trazado_152305" data-name="Trazado 152305" d="M23.417,6.478H20.643V14H18.415V6.478H15.692V4.758h7.725ZM28,9.068l-.7-.051A1.266,1.266,0,0,0,26,9.652V14H23.861V7.132h2.006l.07.882A1.656,1.656,0,0,1,27.441,7a2.086,2.086,0,0,1,.6.076ZM32.449,14a2.415,2.415,0,0,1-.2-.616,1.989,1.989,0,0,1-1.65.743,2.437,2.437,0,0,1-1.65-.587,1.869,1.869,0,0,1-.679-1.476,1.921,1.921,0,0,1,.825-1.688,4.2,4.2,0,0,1,2.4-.571h.66V9.441q0-.95-.819-.95a.669.669,0,0,0-.762.753H28.431a1.918,1.918,0,0,1,.847-1.617A3.561,3.561,0,0,1,31.44,7a3.122,3.122,0,0,1,2.076.641A2.229,2.229,0,0,1,34.3,9.4v3.041a3.114,3.114,0,0,0,.292,1.447V14ZM31.11,12.6a1.193,1.193,0,0,0,.663-.171,1.074,1.074,0,0,0,.378-.387v-1.1h-.622q-1.117,0-1.117,1a.612.612,0,0,0,.2.473A.712.712,0,0,0,31.11,12.6Zm10.747-1.98a4.186,4.186,0,0,1-.7,2.6,2.339,2.339,0,0,1-1.968.908A2.03,2.03,0,0,1,37.5,13.3l-.089.7H35.5V4.25h2.139V7.684A1.958,1.958,0,0,1,39.178,7a2.339,2.339,0,0,1,1.98.92,4.208,4.208,0,0,1,.7,2.59Zm-2.146-.136a2.792,2.792,0,0,0-.263-1.41.888.888,0,0,0-.809-.421,1.024,1.024,0,0,0-1,.551v2.725a1.03,1.03,0,0,0,1.016.545.908.908,0,0,0,.958-.735A5.279,5.279,0,0,0,39.711,10.487ZM46.668,14a2.415,2.415,0,0,1-.2-.616,1.989,1.989,0,0,1-1.65.743,2.437,2.437,0,0,1-1.65-.587,1.869,1.869,0,0,1-.679-1.476,1.921,1.921,0,0,1,.825-1.688,4.2,4.2,0,0,1,2.4-.571h.66V9.441q0-.95-.819-.95a.669.669,0,0,0-.762.753H42.65A1.918,1.918,0,0,1,43.5,7.626,3.561,3.561,0,0,1,45.659,7a3.122,3.122,0,0,1,2.076.641A2.229,2.229,0,0,1,48.515,9.4v3.041a3.114,3.114,0,0,0,.292,1.447V14Zm-1.339-1.4a1.193,1.193,0,0,0,.663-.171,1.074,1.074,0,0,0,.378-.387v-1.1h-.622q-1.117,0-1.117,1a.612.612,0,0,0,.2.473A.712.712,0,0,0,45.329,12.6ZM52,7.132v7.1a2.493,2.493,0,0,1-.7,1.879,2.682,2.682,0,0,1-1.93.66,4.556,4.556,0,0,1-1.009-.108V15.047a4.093,4.093,0,0,0,.6.057.783.783,0,0,0,.889-.882V7.132ZM49.7,5.361a.955.955,0,0,1,.33-.749,1.4,1.4,0,0,1,1.714,0,1.015,1.015,0,0,1,0,1.5,1.4,1.4,0,0,1-1.714,0A.955.955,0,0,1,49.7,5.361ZM52.94,10.5a4.054,4.054,0,0,1,.4-1.831,2.86,2.86,0,0,1,1.149-1.235A3.46,3.46,0,0,1,56.247,7a3.158,3.158,0,0,1,2.431.955,3.666,3.666,0,0,1,.889,2.6v.076a3.557,3.557,0,0,1-.892,2.549,3.166,3.166,0,0,1-2.415.943,3.2,3.2,0,0,1-2.355-.879,3.439,3.439,0,0,1-.958-2.384Zm2.139.133a2.556,2.556,0,0,0,.3,1.4.994.994,0,0,0,.882.444q1.143,0,1.168-1.758V10.5q0-1.847-1.181-1.847-1.073,0-1.162,1.593Zm8.4-.121a4.2,4.2,0,0,1,.7-2.571A2.319,2.319,0,0,1,66.149,7a1.972,1.972,0,0,1,1.549.724V4.25h2.146V14H67.92l-.108-.736a2.026,2.026,0,0,1-1.676.863,2.315,2.315,0,0,1-1.942-.939A4.329,4.329,0,0,1,63.477,10.515Zm2.139.133q0,1.828,1.066,1.828a1.053,1.053,0,0,0,1.016-.6V9.265a1.025,1.025,0,0,0-1-.609q-.99,0-1.073,1.6Zm8.766,3.479a3.531,3.531,0,0,1-2.558-.943,3.255,3.255,0,0,1-.978-2.453v-.178a4.218,4.218,0,0,1,.39-1.86,2.856,2.856,0,0,1,1.139-1.247A3.44,3.44,0,0,1,74.154,7a2.973,2.973,0,0,1,2.285.9,3.53,3.53,0,0,1,.838,2.5v.832H73.024a1.542,1.542,0,0,0,.5.908,1.492,1.492,0,0,0,1,.33,1.923,1.923,0,0,0,1.587-.711l.978,1.155a2.733,2.733,0,0,1-1.133.879A3.829,3.829,0,0,1,74.382,14.127Zm-.241-5.472q-.939,0-1.117,1.244h2.158V9.734a1.06,1.06,0,0,0-.26-.8A1.036,1.036,0,0,0,74.141,8.655ZM33.018,28.731H31.812V32H29.583V22.758h3.637a4.06,4.06,0,0,1,2.571.729,2.471,2.471,0,0,1,.927,2.061,3,3,0,0,1-.39,1.6,2.771,2.771,0,0,1-1.222,1.027l1.93,3.732V32H34.649Zm-1.206-1.714h1.409a1.265,1.265,0,0,0,.955-.334,1.292,1.292,0,0,0,.321-.932,1.307,1.307,0,0,0-.324-.939,1.253,1.253,0,0,0-.952-.34H31.812ZM41.5,28.731H40.292V32H38.064V22.758H41.7a4.06,4.06,0,0,1,2.571.729,2.471,2.471,0,0,1,.927,2.061,3,3,0,0,1-.39,1.6,2.771,2.771,0,0,1-1.222,1.027l1.93,3.732V32H43.129Zm-1.206-1.714H41.7a1.265,1.265,0,0,0,.955-.334,1.292,1.292,0,0,0,.321-.932,1.307,1.307,0,0,0-.324-.939,1.253,1.253,0,0,0-.952-.34H40.292ZM54.27,32H52.054V28.141H48.772V32H46.544V22.758h2.228v3.669h3.282V22.758H54.27ZM63.4,32H61.188V28.141H57.907V32H55.679V22.758h2.228v3.669h3.282V22.758H63.4Z" transform="translate(281 2033)" fill="#12263f"/>
    <path id="Trazado_152306" data-name="Trazado 152306" d="M28.955,6.478H26.181V14H23.953V6.478H21.23V4.758h7.725Zm4.164,7.649a3.531,3.531,0,0,1-2.558-.943,3.255,3.255,0,0,1-.978-2.453v-.178a4.218,4.218,0,0,1,.39-1.86,2.857,2.857,0,0,1,1.139-1.247A3.44,3.44,0,0,1,32.891,7a2.973,2.973,0,0,1,2.285.9,3.53,3.53,0,0,1,.838,2.5v.832H31.761a1.542,1.542,0,0,0,.5.908,1.492,1.492,0,0,0,1,.33,1.923,1.923,0,0,0,1.587-.711l.978,1.155A2.733,2.733,0,0,1,34.7,13.8,3.829,3.829,0,0,1,33.119,14.127Zm-.241-5.472q-.939,0-1.117,1.244h2.158V9.734a1.06,1.06,0,0,0-.26-.8A1.036,1.036,0,0,0,32.878,8.655ZM38.9,7.132l.07.806A2.362,2.362,0,0,1,40.927,7,1.739,1.739,0,0,1,42.685,8.04,2.286,2.286,0,0,1,44.7,7q2.088,0,2.146,2.526V14H44.7V9.665a1.309,1.309,0,0,0-.178-.768.757.757,0,0,0-.647-.241,1.014,1.014,0,0,0-.946.565l.006.089V14H40.793V9.677a1.376,1.376,0,0,0-.171-.781.754.754,0,0,0-.654-.241,1.026,1.026,0,0,0-.939.565V14H36.89V7.132ZM51.94,14a2.415,2.415,0,0,1-.2-.616,1.989,1.989,0,0,1-1.65.743,2.437,2.437,0,0,1-1.65-.587,1.869,1.869,0,0,1-.679-1.476,1.921,1.921,0,0,1,.825-1.688,4.2,4.2,0,0,1,2.4-.571h.66V9.441q0-.95-.819-.95a.669.669,0,0,0-.762.753H47.922a1.918,1.918,0,0,1,.847-1.617A3.561,3.561,0,0,1,50.931,7a3.122,3.122,0,0,1,2.076.641A2.229,2.229,0,0,1,53.787,9.4v3.041a3.114,3.114,0,0,0,.292,1.447V14ZM50.6,12.6a1.193,1.193,0,0,0,.663-.171,1.074,1.074,0,0,0,.378-.387v-1.1H51.02q-1.117,0-1.117,1a.612.612,0,0,0,.2.473A.712.712,0,0,0,50.6,12.6Zm7.338-2.088a4.2,4.2,0,0,1,.7-2.571A2.319,2.319,0,0,1,60.611,7a1.972,1.972,0,0,1,1.549.724V4.25h2.146V14H62.382l-.108-.736a2.026,2.026,0,0,1-1.676.863,2.315,2.315,0,0,1-1.942-.939A4.329,4.329,0,0,1,57.938,10.515Zm2.139.133q0,1.828,1.066,1.828a1.053,1.053,0,0,0,1.016-.6V9.265a1.025,1.025,0,0,0-1-.609q-.99,0-1.073,1.6Zm8.766,3.479a3.531,3.531,0,0,1-2.558-.943,3.255,3.255,0,0,1-.978-2.453v-.178a4.218,4.218,0,0,1,.39-1.86,2.856,2.856,0,0,1,1.139-1.247A3.44,3.44,0,0,1,68.615,7a2.973,2.973,0,0,1,2.285.9,3.53,3.53,0,0,1,.838,2.5v.832H67.485a1.542,1.542,0,0,0,.5.908,1.492,1.492,0,0,0,1,.33,1.923,1.923,0,0,0,1.587-.711l.978,1.155a2.733,2.733,0,0,1-1.133.879A3.829,3.829,0,0,1,68.844,14.127ZM68.6,8.655q-.939,0-1.117,1.244h2.158V9.734a1.06,1.06,0,0,0-.26-.8A1.036,1.036,0,0,0,68.6,8.655ZM10.033,32H7.811V22.758h2.222Zm3.415-6.868.07.806A2.329,2.329,0,0,1,15.479,25a1.96,1.96,0,0,1,1.6.641,3.052,3.052,0,0,1,.549,1.93V32H15.485V27.665a1.159,1.159,0,0,0-.209-.765.969.969,0,0,0-.762-.244,1.02,1.02,0,0,0-.933.5V32H11.442V25.132Zm8.106,4.323,1.085-4.323h2.253L22.652,32H20.468l-2.241-6.868h2.26Zm7.3,2.672a3.531,3.531,0,0,1-2.558-.943,3.255,3.255,0,0,1-.978-2.453v-.178a4.218,4.218,0,0,1,.39-1.86,2.856,2.856,0,0,1,1.139-1.247A3.44,3.44,0,0,1,28.625,25a2.973,2.973,0,0,1,2.285.9,3.53,3.53,0,0,1,.838,2.5v.832H27.5a1.542,1.542,0,0,0,.5.908,1.492,1.492,0,0,0,1,.33,1.923,1.923,0,0,0,1.587-.711l.978,1.155a2.733,2.733,0,0,1-1.133.879A3.829,3.829,0,0,1,28.854,32.127Zm-.241-5.472q-.939,0-1.117,1.244h2.158v-.165a1.06,1.06,0,0,0-.26-.8A1.036,1.036,0,0,0,28.612,26.655ZM36.2,30.07a.494.494,0,0,0-.286-.438,4.345,4.345,0,0,0-1.085-.343,4.95,4.95,0,0,1-1.32-.467,2.212,2.212,0,0,1-.793-.7,1.675,1.675,0,0,1-.273-.946,1.9,1.9,0,0,1,.781-1.558A3.216,3.216,0,0,1,35.271,25a3.563,3.563,0,0,1,2.184.616,1.925,1.925,0,0,1,.825,1.619H36.134q0-.825-.87-.825a.862.862,0,0,0-.565.187.58.58,0,0,0-.229.467.532.532,0,0,0,.279.463,2.639,2.639,0,0,0,.892.292,7.707,7.707,0,0,1,1.076.273,1.955,1.955,0,0,1,1.549,1.911,1.8,1.8,0,0,1-.835,1.53,3.66,3.66,0,0,1-2.161.59A3.735,3.735,0,0,1,33.7,31.81a2.632,2.632,0,0,1-1.079-.863A1.955,1.955,0,0,1,32.23,29.8h2a.827.827,0,0,0,.317.7,1.306,1.306,0,0,0,.781.219,1.027,1.027,0,0,0,.657-.178A.569.569,0,0,0,36.2,30.07Zm5.554-6.646v1.708h1.13v1.485h-1.13v3.142a.8.8,0,0,0,.14.54.749.749,0,0,0,.552.152,3.138,3.138,0,0,0,.533-.038v1.53a3.948,3.948,0,0,1-1.206.184,2.241,2.241,0,0,1-1.631-.521,2.133,2.133,0,0,1-.527-1.581V26.617h-.876V25.132h.876V23.424ZM45.986,32H43.84V25.132h2.146Zm-2.272-8.639a.955.955,0,0,1,.33-.749,1.4,1.4,0,0,1,1.714,0,1.015,1.015,0,0,1,0,1.5,1.4,1.4,0,0,1-1.714,0A.955.955,0,0,1,43.713,23.361Zm3.339,5.154a4.637,4.637,0,0,1,.343-1.841,2.759,2.759,0,0,1,.984-1.235A2.594,2.594,0,0,1,49.871,25a2.062,2.062,0,0,1,1.676.724l.076-.6h1.942V31.74a2.9,2.9,0,0,1-.422,1.577,2.709,2.709,0,0,1-1.222,1.028,4.491,4.491,0,0,1-1.854.359,3.875,3.875,0,0,1-1.463-.286,2.641,2.641,0,0,1-1.082-.743l.9-1.257a1.961,1.961,0,0,0,1.574.7,1.274,1.274,0,0,0,1.422-1.46v-.216a2.009,2.009,0,0,1-1.555.679,2.482,2.482,0,0,1-2.031-.962,3.984,3.984,0,0,1-.774-2.574Zm2.146.133a2.443,2.443,0,0,0,.317,1.336,1,1,0,0,0,.889.492,1.136,1.136,0,0,0,1.009-.463V27.125a1.108,1.108,0,0,0-1-.47,1.008,1.008,0,0,0-.9.511A2.786,2.786,0,0,0,49.2,28.648ZM58.649,32a2.415,2.415,0,0,1-.2-.616,1.989,1.989,0,0,1-1.65.743,2.437,2.437,0,0,1-1.65-.587,1.869,1.869,0,0,1-.679-1.476,1.921,1.921,0,0,1,.825-1.688,4.2,4.2,0,0,1,2.4-.571h.66v-.364q0-.95-.819-.95a.669.669,0,0,0-.762.753H54.631a1.918,1.918,0,0,1,.847-1.617A3.561,3.561,0,0,1,57.64,25a3.122,3.122,0,0,1,2.076.641A2.229,2.229,0,0,1,60.5,27.4v3.041a3.114,3.114,0,0,0,.292,1.447V32ZM57.31,30.6a1.193,1.193,0,0,0,.663-.171,1.074,1.074,0,0,0,.378-.387v-1.1h-.622q-1.117,0-1.117,1a.612.612,0,0,0,.2.473A.712.712,0,0,0,57.31,30.6Zm7.274-.127a.951.951,0,0,0,.7-.244.9.9,0,0,0,.241-.682H67.53A2.375,2.375,0,0,1,66.72,31.4a3.01,3.01,0,0,1-2.085.724,3.048,3.048,0,0,1-2.361-.939,3.7,3.7,0,0,1-.863-2.6V28.5a4.183,4.183,0,0,1,.384-1.838A2.8,2.8,0,0,1,62.9,25.433,3.3,3.3,0,0,1,64.616,25a2.972,2.972,0,0,1,2.126.743,2.634,2.634,0,0,1,.787,2.012H65.524a1.174,1.174,0,0,0-.26-.819.9.9,0,0,0-.7-.286q-.832,0-.971,1.06a7.48,7.48,0,0,0-.044.927,2.938,2.938,0,0,0,.248,1.435A.857.857,0,0,0,64.584,30.477ZM70.691,32H68.545V25.132h2.146Zm-2.272-8.639a.955.955,0,0,1,.33-.749,1.4,1.4,0,0,1,1.714,0,1.015,1.015,0,0,1,0,1.5,1.4,1.4,0,0,1-1.714,0A.955.955,0,0,1,68.418,23.361Zm3.32,5.142a4.054,4.054,0,0,1,.4-1.831,2.86,2.86,0,0,1,1.149-1.235A3.46,3.46,0,0,1,75.045,25a3.158,3.158,0,0,1,2.431.955,3.666,3.666,0,0,1,.889,2.6v.076a3.557,3.557,0,0,1-.892,2.549,3.166,3.166,0,0,1-2.415.943,3.2,3.2,0,0,1-2.355-.879,3.439,3.439,0,0,1-.958-2.384Zm2.139.133a2.556,2.556,0,0,0,.3,1.4.994.994,0,0,0,.882.444q1.143,0,1.168-1.758V28.5q0-1.847-1.181-1.847-1.073,0-1.162,1.593Zm1.46-6.386H77.6l-1.765,1.993-1.746,0Zm5.935,2.882.07.806A2.329,2.329,0,0,1,83.3,25a1.96,1.96,0,0,1,1.6.641,3.052,3.052,0,0,1,.549,1.93V32H83.31V27.665A1.159,1.159,0,0,0,83.1,26.9a.969.969,0,0,0-.762-.244,1.02,1.02,0,0,0-.933.5V32H79.267V25.132Z" transform="translate(291 2108)" fill="#12263f"/>
    <path id="Trazado_152307" data-name="Trazado 152307" d="M11.193,14H8.978L5.7,8.249V14H3.474V4.758H5.7l3.269,5.751V4.758h2.222Zm1.041-3.5a4.054,4.054,0,0,1,.4-1.831,2.86,2.86,0,0,1,1.149-1.235A3.46,3.46,0,0,1,15.541,7a3.158,3.158,0,0,1,2.431.955,3.666,3.666,0,0,1,.889,2.6v.076a3.557,3.557,0,0,1-.892,2.549,3.166,3.166,0,0,1-2.415.943,3.2,3.2,0,0,1-2.355-.879,3.439,3.439,0,0,1-.958-2.384Zm2.139.133a2.556,2.556,0,0,0,.3,1.4.994.994,0,0,0,.882.444q1.143,0,1.168-1.758V10.5q0-1.847-1.181-1.847-1.073,0-1.162,1.593ZM25.532,5.424V7.132h1.13V8.617h-1.13v3.142a.8.8,0,0,0,.14.54.749.749,0,0,0,.552.152,3.138,3.138,0,0,0,.533-.038v1.53a3.948,3.948,0,0,1-1.206.184,2.241,2.241,0,0,1-1.631-.521,2.133,2.133,0,0,1-.527-1.581V8.617h-.876V7.132h.876V5.424Zm5.294,8.7a3.531,3.531,0,0,1-2.558-.943,3.255,3.255,0,0,1-.978-2.453v-.178a4.218,4.218,0,0,1,.39-1.86A2.857,2.857,0,0,1,28.82,7.446,3.44,3.44,0,0,1,30.6,7a2.973,2.973,0,0,1,2.285.9,3.53,3.53,0,0,1,.838,2.5v.832H29.468a1.542,1.542,0,0,0,.5.908,1.492,1.492,0,0,0,1,.33,1.923,1.923,0,0,0,1.587-.711l.978,1.155A2.733,2.733,0,0,1,32.4,13.8,3.829,3.829,0,0,1,30.826,14.127Zm-.241-5.472q-.939,0-1.117,1.244h2.158V9.734a1.06,1.06,0,0,0-.26-.8A1.036,1.036,0,0,0,30.585,8.655Zm5.96-1.523.07.806A2.329,2.329,0,0,1,38.577,7a1.96,1.96,0,0,1,1.6.641,3.052,3.052,0,0,1,.549,1.93V14H38.583V9.665a1.159,1.159,0,0,0-.209-.765.969.969,0,0,0-.762-.244,1.02,1.02,0,0,0-.933.5V14H34.54V7.132Zm5.116,3.383A4.637,4.637,0,0,1,42,8.674a2.759,2.759,0,0,1,.984-1.235A2.594,2.594,0,0,1,44.48,7a2.062,2.062,0,0,1,1.676.724l.076-.6h1.942V13.74a2.9,2.9,0,0,1-.422,1.577,2.709,2.709,0,0,1-1.222,1.028,4.491,4.491,0,0,1-1.854.359,3.875,3.875,0,0,1-1.463-.286,2.641,2.641,0,0,1-1.082-.743l.9-1.257a1.961,1.961,0,0,0,1.574.7,1.274,1.274,0,0,0,1.422-1.46v-.216a2.009,2.009,0,0,1-1.555.679,2.482,2.482,0,0,1-2.031-.962,3.984,3.984,0,0,1-.774-2.574Zm2.146.133a2.443,2.443,0,0,0,.317,1.336,1,1,0,0,0,.889.492,1.136,1.136,0,0,0,1.009-.463V9.125a1.108,1.108,0,0,0-1-.47,1.008,1.008,0,0,0-.9.511A2.786,2.786,0,0,0,43.807,10.648ZM49.12,10.5a4.054,4.054,0,0,1,.4-1.831,2.86,2.86,0,0,1,1.149-1.235A3.46,3.46,0,0,1,52.427,7a3.158,3.158,0,0,1,2.431.955,3.666,3.666,0,0,1,.889,2.6v.076a3.557,3.557,0,0,1-.892,2.549,3.166,3.166,0,0,1-2.415.943,3.2,3.2,0,0,1-2.355-.879,3.439,3.439,0,0,1-.958-2.384Zm2.139.133a2.556,2.556,0,0,0,.3,1.4.994.994,0,0,0,.882.444q1.143,0,1.168-1.758V10.5q0-1.847-1.181-1.847-1.073,0-1.162,1.593ZM62.184,14H60.038V7.132h2.146ZM59.911,5.361a.955.955,0,0,1,.33-.749,1.4,1.4,0,0,1,1.714,0,1.015,1.015,0,0,1,0,1.5,1.4,1.4,0,0,1-1.714,0A.955.955,0,0,1,59.911,5.361Zm5.554,1.771.07.806A2.329,2.329,0,0,1,67.5,7a1.96,1.96,0,0,1,1.6.641,3.052,3.052,0,0,1,.549,1.93V14H67.5V9.665a1.159,1.159,0,0,0-.209-.765.969.969,0,0,0-.762-.244,1.02,1.02,0,0,0-.933.5V14H63.459V7.132ZM71.305,14V8.617h-1V7.132h1V6.586A2.373,2.373,0,0,1,72,4.764a2.734,2.734,0,0,1,1.942-.647,4.254,4.254,0,0,1,1,.133l.006,1.574a1.954,1.954,0,0,0-.527-.057q-.971,0-.971.838v.527H74.79V8.617H73.451V14Zm3.967-3.5a4.054,4.054,0,0,1,.4-1.831,2.86,2.86,0,0,1,1.149-1.235A3.46,3.46,0,0,1,78.58,7a3.158,3.158,0,0,1,2.431.955,3.666,3.666,0,0,1,.889,2.6v.076a3.557,3.557,0,0,1-.892,2.549,3.166,3.166,0,0,1-2.415.943,3.2,3.2,0,0,1-2.355-.879,3.439,3.439,0,0,1-.958-2.384Zm2.139.133a2.556,2.556,0,0,0,.3,1.4.994.994,0,0,0,.882.444q1.143,0,1.168-1.758V10.5q0-1.847-1.181-1.847-1.073,0-1.162,1.593ZM87,9.068l-.7-.051A1.266,1.266,0,0,0,85,9.652V14H82.858V7.132h2.006l.07.882A1.656,1.656,0,0,1,86.438,7a2.086,2.086,0,0,1,.6.076ZM89.79,7.132l.07.806A2.362,2.362,0,0,1,91.821,7,1.739,1.739,0,0,1,93.579,8.04,2.286,2.286,0,0,1,95.6,7q2.088,0,2.146,2.526V14H95.6V9.665A1.309,1.309,0,0,0,95.42,8.9a.757.757,0,0,0-.647-.241,1.014,1.014,0,0,0-.946.565l.006.089V14H91.688V9.677a1.376,1.376,0,0,0-.171-.781.754.754,0,0,0-.654-.241,1.026,1.026,0,0,0-.939.565V14H87.784V7.132ZM102.834,14a2.415,2.415,0,0,1-.2-.616,1.989,1.989,0,0,1-1.65.743,2.437,2.437,0,0,1-1.65-.587,1.869,1.869,0,0,1-.679-1.476,1.921,1.921,0,0,1,.825-1.688,4.2,4.2,0,0,1,2.4-.571h.66V9.441q0-.95-.819-.95a.669.669,0,0,0-.762.753H98.816a1.918,1.918,0,0,1,.847-1.617A3.561,3.561,0,0,1,101.825,7a3.122,3.122,0,0,1,2.076.641,2.229,2.229,0,0,1,.781,1.758v3.041a3.114,3.114,0,0,0,.292,1.447V14Zm-1.339-1.4a1.193,1.193,0,0,0,.663-.171,1.074,1.074,0,0,0,.378-.387v-1.1h-.622q-1.117,0-1.117,1a.612.612,0,0,0,.2.473A.712.712,0,0,0,101.495,12.6Zm7.274-.127a.951.951,0,0,0,.7-.244.9.9,0,0,0,.241-.682h2.006a2.375,2.375,0,0,1-.809,1.854,3.01,3.01,0,0,1-2.085.724,3.048,3.048,0,0,1-2.361-.939,3.7,3.7,0,0,1-.863-2.6V10.5a4.183,4.183,0,0,1,.384-1.838,2.8,2.8,0,0,1,1.108-1.225A3.3,3.3,0,0,1,108.8,7a2.972,2.972,0,0,1,2.126.743,2.634,2.634,0,0,1,.787,2.012h-2.006a1.174,1.174,0,0,0-.26-.819.9.9,0,0,0-.7-.286q-.832,0-.971,1.06a7.48,7.48,0,0,0-.044.927,2.938,2.938,0,0,0,.248,1.435A.857.857,0,0,0,108.769,12.477ZM114.875,14H112.73V7.132h2.146ZM112.6,5.361a.955.955,0,0,1,.33-.749,1.4,1.4,0,0,1,1.714,0,1.015,1.015,0,0,1,0,1.5,1.4,1.4,0,0,1-1.714,0A.955.955,0,0,1,112.6,5.361Zm3.32,5.142a4.054,4.054,0,0,1,.4-1.831,2.86,2.86,0,0,1,1.149-1.235A3.46,3.46,0,0,1,119.23,7a3.158,3.158,0,0,1,2.431.955,3.666,3.666,0,0,1,.889,2.6v.076a3.557,3.557,0,0,1-.892,2.549,3.166,3.166,0,0,1-2.415.943,3.2,3.2,0,0,1-2.355-.879,3.439,3.439,0,0,1-.958-2.384Zm2.139.133a2.556,2.556,0,0,0,.3,1.4.994.994,0,0,0,.882.444q1.143,0,1.168-1.758V10.5q0-1.847-1.181-1.847-1.073,0-1.162,1.593Zm1.46-6.386h2.26l-1.765,1.993-1.746,0Zm5.935,2.882.07.806A2.329,2.329,0,0,1,127.488,7a1.96,1.96,0,0,1,1.6.641,3.052,3.052,0,0,1,.549,1.93V14h-2.146V9.665a1.159,1.159,0,0,0-.209-.765.969.969,0,0,0-.762-.244,1.02,1.02,0,0,0-.933.5V14h-2.139V7.132Z" transform="translate(419 2145)" fill="#12263f"/>
    <path id="Trazado_152310" data-name="Trazado 152310" d="M15.484,14V4.758H18.8a4.7,4.7,0,0,1,2.714.654,2.175,2.175,0,0,1,.93,1.9,2.2,2.2,0,0,1-.33,1.225,1.923,1.923,0,0,1-.971.749,1.948,1.948,0,0,1,1.111.711,2.067,2.067,0,0,1,.387,1.27,2.447,2.447,0,0,1-.86,2.041,4.093,4.093,0,0,1-2.549.7Zm2.228-3.929v2.215h1.46a1.389,1.389,0,0,0,.927-.276.966.966,0,0,0,.324-.778,1.025,1.025,0,0,0-1.149-1.162Zm0-1.46h1.162a1.65,1.65,0,0,0,1.041-.267.949.949,0,0,0,.311-.77,1,1,0,0,0-.336-.844A1.8,1.8,0,0,0,18.8,6.472H17.712Zm10.15,4.646a2.205,2.205,0,0,1-1.834.87,2.163,2.163,0,0,1-1.711-.657,2.763,2.763,0,0,1-.581-1.888V7.132h2.139v4.462a.769.769,0,0,0,.857.882,1.118,1.118,0,0,0,1.047-.527V7.132h2.152V14H27.925ZM34.7,12.07a.494.494,0,0,0-.286-.438,4.345,4.345,0,0,0-1.085-.343,4.95,4.95,0,0,1-1.32-.467,2.212,2.212,0,0,1-.793-.7,1.675,1.675,0,0,1-.273-.946,1.9,1.9,0,0,1,.781-1.558A3.216,3.216,0,0,1,33.765,7a3.563,3.563,0,0,1,2.184.616,1.925,1.925,0,0,1,.825,1.619H34.628q0-.825-.87-.825a.862.862,0,0,0-.565.187.58.58,0,0,0-.229.467.532.532,0,0,0,.279.463,2.639,2.639,0,0,0,.892.292,7.707,7.707,0,0,1,1.076.273,1.955,1.955,0,0,1,1.549,1.911,1.8,1.8,0,0,1-.835,1.53,3.66,3.66,0,0,1-2.161.59,3.735,3.735,0,0,1-1.574-.317,2.632,2.632,0,0,1-1.079-.863,1.955,1.955,0,0,1-.387-1.149h2a.827.827,0,0,0,.317.7,1.306,1.306,0,0,0,.781.219,1.027,1.027,0,0,0,.657-.178A.569.569,0,0,0,34.7,12.07Zm5.967.406a.951.951,0,0,0,.7-.244.9.9,0,0,0,.241-.682H43.61A2.375,2.375,0,0,1,42.8,13.4a3.01,3.01,0,0,1-2.085.724,3.048,3.048,0,0,1-2.361-.939,3.7,3.7,0,0,1-.863-2.6V10.5a4.183,4.183,0,0,1,.384-1.838,2.8,2.8,0,0,1,1.108-1.225A3.3,3.3,0,0,1,40.7,7a2.972,2.972,0,0,1,2.126.743A2.634,2.634,0,0,1,43.61,9.76H41.6a1.174,1.174,0,0,0-.26-.819.9.9,0,0,0-.7-.286q-.832,0-.971,1.06a7.48,7.48,0,0,0-.044.927,2.938,2.938,0,0,0,.248,1.435A.857.857,0,0,0,40.665,12.477ZM48.384,14a2.415,2.415,0,0,1-.2-.616,1.989,1.989,0,0,1-1.65.743,2.437,2.437,0,0,1-1.65-.587,1.869,1.869,0,0,1-.679-1.476,1.921,1.921,0,0,1,.825-1.688,4.2,4.2,0,0,1,2.4-.571h.66V9.441q0-.95-.819-.95a.669.669,0,0,0-.762.753H44.366a1.918,1.918,0,0,1,.847-1.617A3.561,3.561,0,0,1,47.375,7a3.122,3.122,0,0,1,2.076.641A2.229,2.229,0,0,1,50.231,9.4v3.041a3.114,3.114,0,0,0,.292,1.447V14Zm-1.339-1.4a1.193,1.193,0,0,0,.663-.171,1.074,1.074,0,0,0,.378-.387v-1.1h-.622q-1.117,0-1.117,1a.612.612,0,0,0,.2.473A.712.712,0,0,0,47.044,12.6Zm8.525-3.536-.7-.051a1.266,1.266,0,0,0-1.295.635V14H51.431V7.132h2.006l.07.882A1.656,1.656,0,0,1,55.011,7a2.086,2.086,0,0,1,.6.076ZM58.6,14H56.452V7.132H58.6ZM56.325,5.361a.955.955,0,0,1,.33-.749,1.4,1.4,0,0,1,1.714,0,1.015,1.015,0,0,1,0,1.5,1.4,1.4,0,0,1-1.714,0A.955.955,0,0,1,56.325,5.361ZM63.783,14a2.415,2.415,0,0,1-.2-.616,1.989,1.989,0,0,1-1.65.743,2.437,2.437,0,0,1-1.65-.587,1.869,1.869,0,0,1-.679-1.476,1.921,1.921,0,0,1,.825-1.688,4.2,4.2,0,0,1,2.4-.571h.66V9.441q0-.95-.819-.95a.669.669,0,0,0-.762.753H59.765a1.918,1.918,0,0,1,.847-1.617A3.561,3.561,0,0,1,62.774,7a3.122,3.122,0,0,1,2.076.641A2.229,2.229,0,0,1,65.63,9.4v3.041a3.114,3.114,0,0,0,.292,1.447V14Zm-1.339-1.4a1.193,1.193,0,0,0,.663-.171,1.074,1.074,0,0,0,.378-.387v-1.1h-.622q-1.117,0-1.117,1a.612.612,0,0,0,.2.473A.712.712,0,0,0,62.444,12.6Z" transform="translate(485 2233)" fill="#12263f"/>
    <path id="Trazado_152311" data-name="Trazado 152311" d="M6.586,10.731H5.38V14H3.152V4.758H6.789a4.06,4.06,0,0,1,2.571.729,2.471,2.471,0,0,1,.927,2.061,3,3,0,0,1-.39,1.6,2.771,2.771,0,0,1-1.222,1.027L10.6,13.9V14H8.217ZM5.38,9.017H6.789a1.265,1.265,0,0,0,.955-.334,1.292,1.292,0,0,0,.321-.932,1.307,1.307,0,0,0-.324-.939,1.253,1.253,0,0,0-.952-.34H5.38Zm9.477,5.11a3.531,3.531,0,0,1-2.558-.943,3.255,3.255,0,0,1-.978-2.453v-.178a4.218,4.218,0,0,1,.39-1.86,2.857,2.857,0,0,1,1.139-1.247A3.44,3.44,0,0,1,14.628,7a2.973,2.973,0,0,1,2.285.9,3.53,3.53,0,0,1,.838,2.5v.832H13.5a1.542,1.542,0,0,0,.5.908,1.492,1.492,0,0,0,1,.33,1.923,1.923,0,0,0,1.587-.711l.978,1.155a2.733,2.733,0,0,1-1.133.879A3.829,3.829,0,0,1,14.857,14.127Zm-.241-5.472q-.939,0-1.117,1.244h2.158V9.734a1.06,1.06,0,0,0-.26-.8A1.036,1.036,0,0,0,14.616,8.655Zm7.592,3.415a.494.494,0,0,0-.286-.438,4.345,4.345,0,0,0-1.085-.343,4.95,4.95,0,0,1-1.32-.467,2.212,2.212,0,0,1-.793-.7,1.675,1.675,0,0,1-.273-.946,1.9,1.9,0,0,1,.781-1.558A3.216,3.216,0,0,1,21.274,7a3.563,3.563,0,0,1,2.184.616,1.925,1.925,0,0,1,.825,1.619H22.138q0-.825-.87-.825A.862.862,0,0,0,20.7,8.6a.58.58,0,0,0-.229.467.532.532,0,0,0,.279.463,2.639,2.639,0,0,0,.892.292,7.707,7.707,0,0,1,1.076.273,1.955,1.955,0,0,1,1.549,1.911,1.8,1.8,0,0,1-.835,1.53,3.66,3.66,0,0,1-2.161.59A3.735,3.735,0,0,1,19.7,13.81a2.632,2.632,0,0,1-1.079-.863,1.955,1.955,0,0,1-.387-1.149h2a.827.827,0,0,0,.317.7,1.306,1.306,0,0,0,.781.219,1.027,1.027,0,0,0,.657-.178A.569.569,0,0,0,22.208,12.07Zm7.154,1.187a2.205,2.205,0,0,1-1.834.87,2.163,2.163,0,0,1-1.711-.657,2.763,2.763,0,0,1-.581-1.888V7.132h2.139v4.462a.769.769,0,0,0,.857.882,1.118,1.118,0,0,0,1.047-.527V7.132h2.152V14H29.425Zm5.262-6.125.07.806A2.362,2.362,0,0,1,36.655,7,1.739,1.739,0,0,1,38.413,8.04,2.286,2.286,0,0,1,40.432,7q2.088,0,2.146,2.526V14H40.432V9.665a1.309,1.309,0,0,0-.178-.768.757.757,0,0,0-.647-.241,1.014,1.014,0,0,0-.946.565l.006.089V14H36.521V9.677A1.376,1.376,0,0,0,36.35,8.9a.754.754,0,0,0-.654-.241,1.026,1.026,0,0,0-.939.565V14H32.618V7.132ZM46.056,14H43.91V7.132h2.146ZM43.783,5.361a.955.955,0,0,1,.33-.749,1.4,1.4,0,0,1,1.714,0,1.015,1.015,0,0,1,0,1.5,1.4,1.4,0,0,1-1.714,0A.955.955,0,0,1,43.783,5.361Zm7.744,3.707-.7-.051a1.266,1.266,0,0,0-1.295.635V14H47.389V7.132h2.006l.07.882A1.656,1.656,0,0,1,50.969,7a2.086,2.086,0,0,1,.6.076Zm6.03-1.936.07.806A2.362,2.362,0,0,1,59.589,7,1.739,1.739,0,0,1,61.347,8.04,2.286,2.286,0,0,1,63.366,7q2.088,0,2.146,2.526V14H63.366V9.665a1.309,1.309,0,0,0-.178-.768.757.757,0,0,0-.647-.241,1.014,1.014,0,0,0-.946.565l.006.089V14H59.456V9.677a1.376,1.376,0,0,0-.171-.781.754.754,0,0,0-.654-.241,1.026,1.026,0,0,0-.939.565V14H55.552V7.132ZM70.6,14a2.415,2.415,0,0,1-.2-.616,1.989,1.989,0,0,1-1.65.743,2.437,2.437,0,0,1-1.65-.587,1.869,1.869,0,0,1-.679-1.476,1.921,1.921,0,0,1,.825-1.688,4.2,4.2,0,0,1,2.4-.571h.66V9.441q0-.95-.819-.95a.669.669,0,0,0-.762.753H66.584a1.918,1.918,0,0,1,.847-1.617A3.561,3.561,0,0,1,69.593,7a3.122,3.122,0,0,1,2.076.641A2.229,2.229,0,0,1,72.449,9.4v3.041a3.114,3.114,0,0,0,.292,1.447V14Zm-1.339-1.4a1.193,1.193,0,0,0,.663-.171,1.074,1.074,0,0,0,.378-.387v-1.1h-.622q-1.117,0-1.117,1a.612.612,0,0,0,.2.473A.712.712,0,0,0,69.263,12.6Zm6.862-7.179V7.132h1.13V8.617h-1.13v3.142a.8.8,0,0,0,.14.54.749.749,0,0,0,.552.152,3.138,3.138,0,0,0,.533-.038v1.53a3.948,3.948,0,0,1-1.206.184,2.241,2.241,0,0,1-1.631-.521,2.133,2.133,0,0,1-.527-1.581V8.617h-.876V7.132h.876V5.424Zm5.294,8.7a3.531,3.531,0,0,1-2.558-.943,3.255,3.255,0,0,1-.978-2.453v-.178a4.218,4.218,0,0,1,.39-1.86,2.856,2.856,0,0,1,1.139-1.247A3.44,3.44,0,0,1,81.19,7a2.973,2.973,0,0,1,2.285.9,3.53,3.53,0,0,1,.838,2.5v.832H80.06a1.542,1.542,0,0,0,.5.908,1.492,1.492,0,0,0,1,.33,1.923,1.923,0,0,0,1.587-.711l.978,1.155A2.733,2.733,0,0,1,83,13.8,3.829,3.829,0,0,1,81.418,14.127Zm-.241-5.472q-.939,0-1.117,1.244h2.158V9.734a1.06,1.06,0,0,0-.26-.8A1.036,1.036,0,0,0,81.177,8.655Zm8.15.413-.7-.051a1.266,1.266,0,0,0-1.295.635V14H85.189V7.132h2.006l.07.882A1.656,1.656,0,0,1,88.769,7a2.086,2.086,0,0,1,.6.076ZM92.355,14H90.21V7.132h2.146ZM90.083,5.361a.955.955,0,0,1,.33-.749,1.4,1.4,0,0,1,1.714,0,1.015,1.015,0,0,1,0,1.5,1.4,1.4,0,0,1-1.714,0A.955.955,0,0,1,90.083,5.361ZM97.542,14a2.415,2.415,0,0,1-.2-.616,1.989,1.989,0,0,1-1.65.743,2.437,2.437,0,0,1-1.65-.587,1.869,1.869,0,0,1-.679-1.476,1.921,1.921,0,0,1,.825-1.688,4.2,4.2,0,0,1,2.4-.571h.66V9.441q0-.95-.819-.95a.669.669,0,0,0-.762.753H93.523a1.918,1.918,0,0,1,.847-1.617A3.561,3.561,0,0,1,96.532,7a3.122,3.122,0,0,1,2.076.641A2.229,2.229,0,0,1,99.389,9.4v3.041a3.114,3.114,0,0,0,.292,1.447V14ZM96.2,12.6a1.193,1.193,0,0,0,.663-.171,1.074,1.074,0,0,0,.378-.387v-1.1h-.622q-1.117,0-1.117,1a.612.612,0,0,0,.2.473A.712.712,0,0,0,96.2,12.6Zm6.627,1.4h-2.146V4.25h2.146Z" transform="translate(285 2270)" fill="#12263f"/>
    <path id="Trazado_152318" data-name="Trazado 152318" d="M8.544,10.731H7.338V14H5.11V4.758H8.747a4.06,4.06,0,0,1,2.571.729,2.471,2.471,0,0,1,.927,2.061,3,3,0,0,1-.39,1.6,2.771,2.771,0,0,1-1.222,1.027l1.93,3.732V14H10.176ZM7.338,9.017H8.747A1.265,1.265,0,0,0,9.7,8.683a1.292,1.292,0,0,0,.321-.932A1.307,1.307,0,0,0,9.7,6.812a1.253,1.253,0,0,0-.952-.34H7.338Zm9.477,5.11a3.531,3.531,0,0,1-2.558-.943,3.255,3.255,0,0,1-.978-2.453v-.178a4.218,4.218,0,0,1,.39-1.86,2.857,2.857,0,0,1,1.139-1.247A3.44,3.44,0,0,1,16.587,7a2.973,2.973,0,0,1,2.285.9,3.53,3.53,0,0,1,.838,2.5v.832H15.457a1.542,1.542,0,0,0,.5.908,1.492,1.492,0,0,0,1,.33,1.923,1.923,0,0,0,1.587-.711l.978,1.155a2.733,2.733,0,0,1-1.133.879A3.829,3.829,0,0,1,16.815,14.127Zm-.241-5.472q-.939,0-1.117,1.244h2.158V9.734a1.06,1.06,0,0,0-.26-.8A1.036,1.036,0,0,0,16.574,8.655Zm3.726,1.86A4.2,4.2,0,0,1,21,7.944,2.319,2.319,0,0,1,22.972,7a1.972,1.972,0,0,1,1.549.724V4.25h2.146V14H24.743l-.108-.736a2.026,2.026,0,0,1-1.676.863,2.315,2.315,0,0,1-1.942-.939A4.329,4.329,0,0,1,20.3,10.515Zm2.139.133q0,1.828,1.066,1.828a1.053,1.053,0,0,0,1.016-.6V9.265a1.025,1.025,0,0,0-1-.609q-.99,0-1.073,1.6ZM31.751,14a2.415,2.415,0,0,1-.2-.616,1.989,1.989,0,0,1-1.65.743,2.437,2.437,0,0,1-1.65-.587,1.869,1.869,0,0,1-.679-1.476,1.921,1.921,0,0,1,.825-1.688,4.2,4.2,0,0,1,2.4-.571h.66V9.441q0-.95-.819-.95a.669.669,0,0,0-.762.753H27.733a1.918,1.918,0,0,1,.847-1.617A3.561,3.561,0,0,1,30.742,7a3.122,3.122,0,0,1,2.076.641A2.229,2.229,0,0,1,33.6,9.4v3.041a3.114,3.114,0,0,0,.292,1.447V14Zm-1.339-1.4a1.193,1.193,0,0,0,.663-.171,1.074,1.074,0,0,0,.378-.387v-1.1h-.622q-1.117,0-1.117,1a.612.612,0,0,0,.2.473A.712.712,0,0,0,30.412,12.6Zm7.274-.127a.951.951,0,0,0,.7-.244.9.9,0,0,0,.241-.682h2.006a2.375,2.375,0,0,1-.809,1.854,3.01,3.01,0,0,1-2.085.724,3.048,3.048,0,0,1-2.361-.939,3.7,3.7,0,0,1-.863-2.6V10.5A4.183,4.183,0,0,1,34.9,8.658,2.8,2.8,0,0,1,36,7.433,3.3,3.3,0,0,1,37.718,7a2.972,2.972,0,0,1,2.126.743,2.634,2.634,0,0,1,.787,2.012H38.626a1.174,1.174,0,0,0-.26-.819.9.9,0,0,0-.7-.286q-.832,0-.971,1.06a7.48,7.48,0,0,0-.044.927,2.938,2.938,0,0,0,.248,1.435A.857.857,0,0,0,37.686,12.477Zm6.341-7.052V7.132h1.13V8.617h-1.13v3.142a.8.8,0,0,0,.14.54.749.749,0,0,0,.552.152,3.138,3.138,0,0,0,.533-.038v1.53a3.948,3.948,0,0,1-1.206.184,2.241,2.241,0,0,1-1.631-.521,2.133,2.133,0,0,1-.527-1.581V8.617h-.876V7.132h.876V5.424ZM49.867,14a2.415,2.415,0,0,1-.2-.616,1.989,1.989,0,0,1-1.65.743,2.437,2.437,0,0,1-1.65-.587,1.869,1.869,0,0,1-.679-1.476,1.921,1.921,0,0,1,.825-1.688,4.2,4.2,0,0,1,2.4-.571h.66V9.441q0-.95-.819-.95a.669.669,0,0,0-.762.753H45.849A1.918,1.918,0,0,1,46.7,7.626,3.561,3.561,0,0,1,48.858,7a3.122,3.122,0,0,1,2.076.641A2.229,2.229,0,0,1,51.715,9.4v3.041a3.114,3.114,0,0,0,.292,1.447V14Zm-1.339-1.4a1.193,1.193,0,0,0,.663-.171,1.074,1.074,0,0,0,.378-.387v-1.1h-.622q-1.117,0-1.117,1a.612.612,0,0,0,.2.473A.712.712,0,0,0,48.528,12.6Zm8.525-3.536-.7-.051a1.266,1.266,0,0,0-1.295.635V14H52.914V7.132H54.92l.07.882A1.656,1.656,0,0,1,56.494,7a2.086,2.086,0,0,1,.6.076Zm6.5-3.644V7.132h1.13V8.617h-1.13v3.142a.8.8,0,0,0,.14.54.749.749,0,0,0,.552.152,3.138,3.138,0,0,0,.533-.038v1.53a3.948,3.948,0,0,1-1.206.184,2.241,2.241,0,0,1-1.631-.521,2.133,2.133,0,0,1-.527-1.581V8.617h-.876V7.132h.876V5.424Zm6.125,3.644-.7-.051a1.266,1.266,0,0,0-1.295.635V14H65.54V7.132h2.006l.07.882A1.656,1.656,0,0,1,69.12,7a2.086,2.086,0,0,1,.6.076ZM74.128,14a2.415,2.415,0,0,1-.2-.616,1.989,1.989,0,0,1-1.65.743,2.437,2.437,0,0,1-1.65-.587,1.869,1.869,0,0,1-.679-1.476,1.921,1.921,0,0,1,.825-1.688,4.2,4.2,0,0,1,2.4-.571h.66V9.441q0-.95-.819-.95a.669.669,0,0,0-.762.753H70.11a1.918,1.918,0,0,1,.847-1.617A3.561,3.561,0,0,1,73.119,7a3.122,3.122,0,0,1,2.076.641A2.229,2.229,0,0,1,75.975,9.4v3.041a3.114,3.114,0,0,0,.292,1.447V14Zm-1.339-1.4a1.193,1.193,0,0,0,.663-.171,1.074,1.074,0,0,0,.378-.387v-1.1h-.622q-1.117,0-1.117,1a.612.612,0,0,0,.2.473A.712.712,0,0,0,72.789,12.6Zm10.747-1.98a4.186,4.186,0,0,1-.7,2.6,2.339,2.339,0,0,1-1.968.908,2.03,2.03,0,0,1-1.688-.832l-.089.7H77.175V4.25h2.139V7.684A1.958,1.958,0,0,1,80.857,7a2.339,2.339,0,0,1,1.98.92,4.208,4.208,0,0,1,.7,2.59Zm-2.146-.136a2.792,2.792,0,0,0-.263-1.41.888.888,0,0,0-.809-.421,1.024,1.024,0,0,0-1,.551v2.725a1.03,1.03,0,0,0,1.016.545.908.908,0,0,0,.958-.735A5.279,5.279,0,0,0,81.39,10.487ZM88.347,14a2.415,2.415,0,0,1-.2-.616,1.989,1.989,0,0,1-1.65.743,2.437,2.437,0,0,1-1.65-.587,1.869,1.869,0,0,1-.679-1.476,1.921,1.921,0,0,1,.825-1.688,4.2,4.2,0,0,1,2.4-.571h.66V9.441q0-.95-.819-.95a.669.669,0,0,0-.762.753H84.329a1.918,1.918,0,0,1,.847-1.617A3.561,3.561,0,0,1,87.338,7a3.122,3.122,0,0,1,2.076.641A2.229,2.229,0,0,1,90.194,9.4v3.041a3.114,3.114,0,0,0,.292,1.447V14Zm-1.339-1.4a1.193,1.193,0,0,0,.663-.171,1.074,1.074,0,0,0,.378-.387v-1.1h-.622q-1.117,0-1.117,1a.612.612,0,0,0,.2.473A.712.712,0,0,0,87.008,12.6Zm6.671-5.472v7.1a2.493,2.493,0,0,1-.7,1.879,2.682,2.682,0,0,1-1.93.66,4.556,4.556,0,0,1-1.009-.108V15.047a4.093,4.093,0,0,0,.6.057.783.783,0,0,0,.889-.882V7.132Zm-2.3-1.771a.955.955,0,0,1,.33-.749,1.4,1.4,0,0,1,1.714,0,1.015,1.015,0,0,1,0,1.5,1.4,1.4,0,0,1-1.714,0A.955.955,0,0,1,91.375,5.361ZM94.618,10.5a4.054,4.054,0,0,1,.4-1.831,2.86,2.86,0,0,1,1.149-1.235A3.46,3.46,0,0,1,97.926,7a3.158,3.158,0,0,1,2.431.955,3.666,3.666,0,0,1,.889,2.6v.076a3.557,3.557,0,0,1-.892,2.549,3.166,3.166,0,0,1-2.415.943,3.2,3.2,0,0,1-2.355-.879,3.439,3.439,0,0,1-.958-2.384Zm2.139.133a2.556,2.556,0,0,0,.3,1.4.994.994,0,0,0,.882.444q1.143,0,1.168-1.758V10.5q0-1.847-1.181-1.847-1.073,0-1.162,1.593Z" transform="translate(285 2336)" fill="#12263f"/>
    <path id="Trazado_152308" data-name="Trazado 152308" d="M38.241,4.214H36.107V10H34.393V4.214H32.3V2.891h5.942Zm3.2,5.884a2.716,2.716,0,0,1-1.968-.725,2.5,2.5,0,0,1-.752-1.887V7.349a3.245,3.245,0,0,1,.3-1.431,2.2,2.2,0,0,1,.876-.959,2.646,2.646,0,0,1,1.367-.339,2.287,2.287,0,0,1,1.758.691,2.715,2.715,0,0,1,.645,1.926v.64H40.4a1.186,1.186,0,0,0,.386.7,1.148,1.148,0,0,0,.771.254,1.479,1.479,0,0,0,1.221-.547l.752.889a2.1,2.1,0,0,1-.872.676A2.945,2.945,0,0,1,41.444,10.1Zm-.186-4.209q-.723,0-.859.957h1.66V6.719a.815.815,0,0,0-.2-.613A.8.8,0,0,0,41.258,5.889Zm4.585-1.172.054.62a1.792,1.792,0,0,1,1.509-.718,1.507,1.507,0,0,1,1.233.493A2.348,2.348,0,0,1,49.061,6.6V10h-1.65V6.665a.892.892,0,0,0-.161-.588.745.745,0,0,0-.586-.188.785.785,0,0,0-.718.381V10H44.3V4.717Zm3.936,2.6A3.567,3.567,0,0,1,50.042,5.9a2.123,2.123,0,0,1,.757-.95,2,2,0,0,1,1.147-.334,1.586,1.586,0,0,1,1.289.557l.059-.459h1.494V9.8a2.227,2.227,0,0,1-.325,1.213,2.084,2.084,0,0,1-.94.791,3.455,3.455,0,0,1-1.426.276,2.981,2.981,0,0,1-1.125-.22,2.032,2.032,0,0,1-.833-.571l.688-.967a1.509,1.509,0,0,0,1.211.542.98.98,0,0,0,1.094-1.123V9.575a1.545,1.545,0,0,1-1.2.522,1.909,1.909,0,0,1-1.562-.74,3.065,3.065,0,0,1-.6-1.98Zm1.65.1a1.879,1.879,0,0,0,.244,1.028.77.77,0,0,0,.684.378.874.874,0,0,0,.776-.356V6.25a.852.852,0,0,0-.767-.361.775.775,0,0,0-.688.393A2.143,2.143,0,0,0,51.429,7.422Zm4.087-.112A3.118,3.118,0,0,1,55.824,5.9a2.2,2.2,0,0,1,.884-.95,2.662,2.662,0,0,1,1.353-.332,2.429,2.429,0,0,1,1.87.735,2.82,2.82,0,0,1,.684,2v.059a2.736,2.736,0,0,1-.686,1.96,2.436,2.436,0,0,1-1.858.725,2.463,2.463,0,0,1-1.812-.676,2.645,2.645,0,0,1-.737-1.833Zm1.646.1a1.966,1.966,0,0,0,.229,1.074.765.765,0,0,0,.679.342q.879,0,.9-1.353V7.31q0-1.421-.908-1.421-.825,0-.894,1.226ZM21.461,23H19.752V15.891h1.709Zm2.627-5.283.054.62a1.792,1.792,0,0,1,1.509-.718,1.507,1.507,0,0,1,1.233.493,2.348,2.348,0,0,1,.422,1.484V23h-1.65V19.665a.892.892,0,0,0-.161-.588.745.745,0,0,0-.586-.188.785.785,0,0,0-.718.381V23H22.545V17.717ZM28.58,23V18.859h-.767V17.717h.767V17.3a1.825,1.825,0,0,1,.532-1.4,2.1,2.1,0,0,1,1.494-.5,3.272,3.272,0,0,1,.771.1l0,1.211a1.5,1.5,0,0,0-.405-.044q-.747,0-.747.645v.405h1.03v1.143H30.23V23Zm3.052-2.69a3.118,3.118,0,0,1,.308-1.409,2.2,2.2,0,0,1,.884-.95,2.662,2.662,0,0,1,1.353-.332,2.429,2.429,0,0,1,1.87.735,2.82,2.82,0,0,1,.684,2v.059a2.736,2.736,0,0,1-.686,1.96,2.436,2.436,0,0,1-1.858.725,2.463,2.463,0,0,1-1.812-.676,2.645,2.645,0,0,1-.737-1.833Zm1.646.1a1.966,1.966,0,0,0,.229,1.074.765.765,0,0,0,.679.342q.879,0,.9-1.353V20.31q0-1.421-.908-1.421-.825,0-.894,1.226Zm7.373-1.206-.542-.039a.973.973,0,0,0-1,.488V23H37.467V17.717H39.01l.054.679a1.274,1.274,0,0,1,1.157-.776,1.6,1.6,0,0,1,.459.059ZM42.8,17.717l.054.62a1.817,1.817,0,0,1,1.509-.718,1.337,1.337,0,0,1,1.353.8,1.758,1.758,0,0,1,1.553-.8q1.606,0,1.65,1.943V23h-1.65V19.665a1.007,1.007,0,0,0-.137-.591.582.582,0,0,0-.5-.186.78.78,0,0,0-.728.435l0,.068V23h-1.65V19.675a1.059,1.059,0,0,0-.132-.6.58.58,0,0,0-.5-.186.789.789,0,0,0-.723.435V23H41.256V17.717ZM52.833,23a1.858,1.858,0,0,1-.156-.474,1.53,1.53,0,0,1-1.27.571,1.874,1.874,0,0,1-1.27-.452,1.438,1.438,0,0,1-.522-1.135,1.478,1.478,0,0,1,.635-1.3,3.234,3.234,0,0,1,1.846-.439H52.6v-.28q0-.731-.63-.731a.515.515,0,0,0-.586.579H49.742a1.475,1.475,0,0,1,.652-1.244,2.739,2.739,0,0,1,1.663-.478,2.4,2.4,0,0,1,1.6.493,1.715,1.715,0,0,1,.6,1.353V21.8a2.4,2.4,0,0,0,.225,1.113V23ZM51.8,21.926a.918.918,0,0,0,.51-.132.826.826,0,0,0,.291-.3v-.845h-.479q-.859,0-.859.771a.471.471,0,0,0,.151.364A.548.548,0,0,0,51.8,21.926Zm5.6-.1a.732.732,0,0,0,.537-.188.689.689,0,0,0,.186-.525h1.543a1.827,1.827,0,0,1-.623,1.426,2.316,2.316,0,0,1-1.6.557,2.345,2.345,0,0,1-1.816-.723,2.847,2.847,0,0,1-.664-2V20.3a3.218,3.218,0,0,1,.3-1.414,2.151,2.151,0,0,1,.852-.942,2.541,2.541,0,0,1,1.318-.33,2.287,2.287,0,0,1,1.636.571,2.026,2.026,0,0,1,.605,1.548H58.121a.9.9,0,0,0-.2-.63.691.691,0,0,0-.537-.22q-.64,0-.747.815a5.754,5.754,0,0,0-.034.713,2.26,2.26,0,0,0,.19,1.1A.659.659,0,0,0,57.4,21.828ZM62.1,23h-1.65V17.717H62.1Zm-1.748-6.646a.734.734,0,0,1,.254-.576,1.08,1.08,0,0,1,1.318,0,.781.781,0,0,1,0,1.152,1.08,1.08,0,0,1-1.318,0A.734.734,0,0,1,60.348,16.354ZM62.9,20.31a3.118,3.118,0,0,1,.308-1.409,2.2,2.2,0,0,1,.884-.95,2.662,2.662,0,0,1,1.353-.332,2.429,2.429,0,0,1,1.87.735,2.82,2.82,0,0,1,.684,2v.059a2.736,2.736,0,0,1-.686,1.96,2.436,2.436,0,0,1-1.858.725,2.463,2.463,0,0,1-1.812-.676,2.645,2.645,0,0,1-.737-1.833Zm1.646.1a1.966,1.966,0,0,0,.229,1.074.765.765,0,0,0,.679.342q.879,0,.9-1.353V20.31q0-1.421-.908-1.421-.825,0-.894,1.226ZM65.67,15.5h1.738l-1.357,1.533-1.343,0Zm4.565,2.217.054.62a1.792,1.792,0,0,1,1.509-.718,1.507,1.507,0,0,1,1.233.493,2.348,2.348,0,0,1,.422,1.484V23H71.8V19.665a.892.892,0,0,0-.161-.588.745.745,0,0,0-.586-.188.785.785,0,0,0-.718.381V23H68.692V17.717Z" transform="translate(295 2165)" fill="#12263f"/>
    <path id="Trazado_152319" data-name="Trazado 152319" d="M50.512,10.318H46.919V14H44.691V4.758h6.183v1.72H46.919V8.6h3.593ZM53.958,14H51.813V7.132h2.146ZM51.686,5.361a.955.955,0,0,1,.33-.749,1.4,1.4,0,0,1,1.714,0,1.015,1.015,0,0,1,0,1.5,1.4,1.4,0,0,1-1.714,0A.955.955,0,0,1,51.686,5.361ZM57.24,7.132l.07.806A2.329,2.329,0,0,1,59.271,7a1.96,1.96,0,0,1,1.6.641,3.052,3.052,0,0,1,.549,1.93V14H59.278V9.665a1.159,1.159,0,0,0-.209-.765.969.969,0,0,0-.762-.244,1.02,1.02,0,0,0-.933.5V14H55.234V7.132Z" transform="translate(285 2410)" fill="#12263f"/>
    <path id="Trazado_152309" data-name="Trazado 152309" d="M20.276,14H18.055V4.758h2.222Zm3.415-6.868.07.806A2.329,2.329,0,0,1,25.723,7a1.96,1.96,0,0,1,1.6.641,3.052,3.052,0,0,1,.549,1.93V14H25.729V9.665A1.159,1.159,0,0,0,25.52,8.9a.969.969,0,0,0-.762-.244,1.02,1.02,0,0,0-.933.5V14H21.686V7.132ZM31.55,5.424V7.132h1.13V8.617H31.55v3.142a.8.8,0,0,0,.14.54.749.749,0,0,0,.552.152,3.138,3.138,0,0,0,.533-.038v1.53a3.948,3.948,0,0,1-1.206.184,2.241,2.241,0,0,1-1.631-.521,2.133,2.133,0,0,1-.527-1.581V8.617h-.876V7.132h.876V5.424Zm5.294,8.7a3.531,3.531,0,0,1-2.558-.943,3.255,3.255,0,0,1-.978-2.453v-.178a4.218,4.218,0,0,1,.39-1.86,2.857,2.857,0,0,1,1.139-1.247A3.44,3.44,0,0,1,36.615,7a2.973,2.973,0,0,1,2.285.9,3.53,3.53,0,0,1,.838,2.5v.832H35.485a1.542,1.542,0,0,0,.5.908,1.492,1.492,0,0,0,1,.33,1.923,1.923,0,0,0,1.587-.711l.978,1.155a2.733,2.733,0,0,1-1.133.879A3.829,3.829,0,0,1,36.844,14.127ZM36.6,8.655q-.939,0-1.117,1.244h2.158V9.734a1.06,1.06,0,0,0-.26-.8A1.036,1.036,0,0,0,36.6,8.655Zm8.15.413-.7-.051a1.266,1.266,0,0,0-1.295.635V14H40.614V7.132H42.62l.07.882A1.656,1.656,0,0,1,44.194,7a2.086,2.086,0,0,1,.6.076Zm2.736-1.936.07.806A2.329,2.329,0,0,1,49.52,7a1.96,1.96,0,0,1,1.6.641,3.052,3.052,0,0,1,.549,1.93V14H49.526V9.665a1.159,1.159,0,0,0-.209-.765.969.969,0,0,0-.762-.244,1.02,1.02,0,0,0-.933.5V14H45.483V7.132Zm8.69,7a3.531,3.531,0,0,1-2.558-.943,3.255,3.255,0,0,1-.978-2.453v-.178a4.218,4.218,0,0,1,.39-1.86,2.857,2.857,0,0,1,1.139-1.247A3.44,3.44,0,0,1,55.95,7a2.973,2.973,0,0,1,2.285.9,3.53,3.53,0,0,1,.838,2.5v.832H54.82a1.542,1.542,0,0,0,.5.908,1.492,1.492,0,0,0,1,.33,1.923,1.923,0,0,0,1.587-.711l.978,1.155a2.733,2.733,0,0,1-1.133.879A3.829,3.829,0,0,1,56.179,14.127Zm-.241-5.472Q55,8.655,54.82,9.9h2.158V9.734a1.06,1.06,0,0,0-.26-.8A1.036,1.036,0,0,0,55.938,8.655Zm6.487-3.231V7.132h1.13V8.617h-1.13v3.142a.8.8,0,0,0,.14.54.749.749,0,0,0,.552.152,3.138,3.138,0,0,0,.533-.038v1.53a3.948,3.948,0,0,1-1.206.184,2.241,2.241,0,0,1-1.631-.521,2.133,2.133,0,0,1-.527-1.581V8.617H59.41V7.132h.876V5.424Z" transform="translate(600 2227)" fill="#12263f"/>
    <path id="Trazado_152314" data-name="Trazado 152314" d="M16.622,6.231a2.982,2.982,0,0,1-.134,1.013,1.513,1.513,0,0,1-.45.622l-.29.268a1.146,1.146,0,0,0-.409.817.611.611,0,0,0,.147.455.523.523,0,0,0,.38.143.58.58,0,0,0,.459-.187.808.808,0,0,0,.174-.53h1.49a1.8,1.8,0,0,1-.56,1.371,2.206,2.206,0,0,1-1.527.488,2.268,2.268,0,0,1-1.514-.455,1.6,1.6,0,0,1-.534-1.285,1.476,1.476,0,0,1,.167-.688,2.727,2.727,0,0,1,.571-.7l.374-.343a1.01,1.01,0,0,0,.378-.672l.022-.316Zm-.589-.593a.851.851,0,0,1-.587-.209.724.724,0,0,1,0-1.068.851.851,0,0,1,.587-.209.837.837,0,0,1,.591.213.723.723,0,0,1,0,1.059A.837.837,0,0,1,16.033,5.638Zm6.535.646H20.142V7.813h2.865V9H18.6V2.6h4.417V3.792H20.142V5.142h2.426Zm3.489,1.38a.342.342,0,0,0-.2-.3,3.008,3.008,0,0,0-.751-.237,3.427,3.427,0,0,1-.914-.323,1.531,1.531,0,0,1-.549-.486,1.16,1.16,0,0,1-.189-.655A1.314,1.314,0,0,1,24,4.581a2.227,2.227,0,0,1,1.415-.424,2.467,2.467,0,0,1,1.512.426A1.333,1.333,0,0,1,27.494,5.7H26.009q0-.571-.6-.571a.6.6,0,0,0-.391.13.4.4,0,0,0-.158.323.368.368,0,0,0,.193.321,1.827,1.827,0,0,0,.617.2,5.336,5.336,0,0,1,.745.189A1.353,1.353,0,0,1,27.486,7.62a1.245,1.245,0,0,1-.578,1.059,2.534,2.534,0,0,1-1.5.409,2.586,2.586,0,0,1-1.09-.22,1.822,1.822,0,0,1-.747-.6,1.353,1.353,0,0,1-.268-.8h1.384a.572.572,0,0,0,.22.481.9.9,0,0,0,.541.152.711.711,0,0,0,.455-.123A.394.394,0,0,0,26.057,7.664Zm3.845-4.6V4.245h.782V5.273H29.9V7.449a.555.555,0,0,0,.1.374.519.519,0,0,0,.382.105,2.173,2.173,0,0,0,.369-.026V8.96a2.733,2.733,0,0,1-.835.127,1.551,1.551,0,0,1-1.129-.36,1.477,1.477,0,0,1-.365-1.094V5.273h-.606V4.245h.606V3.063Zm1.046,3.516a2.806,2.806,0,0,1,.277-1.268,1.98,1.98,0,0,1,.8-.855,2.4,2.4,0,0,1,1.217-.3,2.186,2.186,0,0,1,1.683.661,2.538,2.538,0,0,1,.615,1.8v.053a2.462,2.462,0,0,1-.617,1.764,2.192,2.192,0,0,1-1.672.653,2.217,2.217,0,0,1-1.63-.609,2.381,2.381,0,0,1-.664-1.65Zm1.481.092a1.769,1.769,0,0,0,.207.967.688.688,0,0,0,.611.308q.791,0,.809-1.217V6.579q0-1.279-.817-1.279-.743,0-.8,1.1Zm5.66.255.791-2.681h1.586L38.529,9.8l-.083.2a1.472,1.472,0,0,1-1.459.923,2.321,2.321,0,0,1-.611-.088V9.778h.193a1.013,1.013,0,0,0,.477-.09.547.547,0,0,0,.244-.323l.119-.317-1.652-4.8h1.582Zm6.451-2.171a1.625,1.625,0,0,1,2.4-.132A2.093,2.093,0,0,1,47.349,6V9H45.864V6.034a.837.837,0,0,0-.154-.556.661.661,0,0,0-.523-.178.712.712,0,0,0-.646.29V9H43.06V2.25h1.481Zm5.933,4.333A2.444,2.444,0,0,1,48.7,8.435a2.254,2.254,0,0,1-.677-1.7V6.614a2.92,2.92,0,0,1,.27-1.288,1.978,1.978,0,0,1,.789-.864,2.381,2.381,0,0,1,1.23-.305,2.058,2.058,0,0,1,1.582.622,2.444,2.444,0,0,1,.58,1.734v.576H49.533a1.067,1.067,0,0,0,.347.628,1.033,1.033,0,0,0,.694.229,1.331,1.331,0,0,0,1.1-.492l.677.8a1.892,1.892,0,0,1-.784.609A2.651,2.651,0,0,1,50.473,9.088ZM50.306,5.3q-.65,0-.773.861h1.494V6.047a.734.734,0,0,0-.18-.552A.717.717,0,0,0,50.306,5.3Zm4.777,2.646a.659.659,0,0,0,.483-.169.62.62,0,0,0,.167-.472h1.389a1.644,1.644,0,0,1-.56,1.283,2.084,2.084,0,0,1-1.444.5,2.11,2.11,0,0,1-1.635-.65,2.563,2.563,0,0,1-.6-1.8V6.574A2.9,2.9,0,0,1,53.152,5.3a1.936,1.936,0,0,1,.767-.848,2.287,2.287,0,0,1,1.187-.3,2.058,2.058,0,0,1,1.472.514,1.824,1.824,0,0,1,.545,1.393H55.734a.813.813,0,0,0-.18-.567.622.622,0,0,0-.483-.2q-.576,0-.672.734a5.178,5.178,0,0,0-.031.642,2.034,2.034,0,0,0,.171.993A.593.593,0,0,0,55.083,7.945ZM59.2,4.755a1.625,1.625,0,0,1,2.4-.132A2.093,2.093,0,0,1,62,6V9H60.519V6.034a.837.837,0,0,0-.154-.556.661.661,0,0,0-.523-.178.712.712,0,0,0-.646.29V9H57.716V2.25H59.2Zm3.445,1.824a2.806,2.806,0,0,1,.277-1.268,1.98,1.98,0,0,1,.8-.855,2.4,2.4,0,0,1,1.217-.3,2.186,2.186,0,0,1,1.683.661,2.538,2.538,0,0,1,.615,1.8v.053a2.462,2.462,0,0,1-.617,1.764,2.192,2.192,0,0,1-1.672.653,2.217,2.217,0,0,1-1.63-.609,2.381,2.381,0,0,1-.664-1.65Zm1.481.092a1.769,1.769,0,0,0,.207.967.688.688,0,0,0,.611.308q.791,0,.809-1.217V6.579q0-1.279-.817-1.279-.743,0-.8,1.1ZM30.259,20.486a1.527,1.527,0,0,1-1.27.6,1.5,1.5,0,0,1-1.184-.455,1.913,1.913,0,0,1-.4-1.307V16.245h1.481v3.089a.532.532,0,0,0,.593.611.774.774,0,0,0,.725-.365V16.245h1.49V21H30.3Zm3.6-4.241.048.558a1.612,1.612,0,0,1,1.358-.646,1.357,1.357,0,0,1,1.11.444,2.113,2.113,0,0,1,.38,1.336V21H35.273V18a.8.8,0,0,0-.145-.53A.671.671,0,0,0,34.6,17.3a.706.706,0,0,0-.646.343V21H32.473V16.245ZM41.381,21H39.9V14.25h1.485Zm2.474,0H42.37V16.245h1.485Zm-1.573-5.981a.661.661,0,0,1,.229-.519.972.972,0,0,1,1.187,0,.7.7,0,0,1,0,1.037.972.972,0,0,1-1.187,0A.661.661,0,0,1,42.282,15.019Zm2.3,3.56a2.806,2.806,0,0,1,.277-1.268,1.98,1.98,0,0,1,.8-.855,2.4,2.4,0,0,1,1.217-.3,2.186,2.186,0,0,1,1.683.661,2.538,2.538,0,0,1,.615,1.8v.053a2.462,2.462,0,0,1-.617,1.764,2.192,2.192,0,0,1-1.672.653,2.217,2.217,0,0,1-1.63-.609,2.381,2.381,0,0,1-.664-1.65Zm1.481.092a1.769,1.769,0,0,0,.207.967.688.688,0,0,0,.611.308q.791,0,.809-1.217v-.149q0-1.279-.817-1.279-.743,0-.8,1.1Zm4.856.3a2.86,2.86,0,0,1,.145-1.013,1.584,1.584,0,0,1,.47-.644,3.126,3.126,0,0,0,.494-.5.814.814,0,0,0,.169-.5q0-.664-.571-.664a.53.53,0,0,0-.426.193.822.822,0,0,0-.171.523H49.542A1.772,1.772,0,0,1,50.1,15a2.208,2.208,0,0,1,1.529-.49,2.293,2.293,0,0,1,1.518.453,1.589,1.589,0,0,1,.538,1.288,1.5,1.5,0,0,1-.145.664,2.243,2.243,0,0,1-.466.611l-.505.47a1.189,1.189,0,0,0-.3.424,1.681,1.681,0,0,0-.092.552Zm-.18,1.336a.682.682,0,0,1,.235-.534.929.929,0,0,1,1.173,0,.724.724,0,0,1,0,1.068.929.929,0,0,1-1.173,0A.682.682,0,0,1,50.737,20.31Z" transform="translate(491 2310)" fill="#12263f"/>
    <path id="Trazado_152312" data-name="Trazado 152312" d="M26.424,6.833a2.337,2.337,0,0,1-.36,1.18,2.175,2.175,0,0,1-.925.793,3.149,3.149,0,0,1-1.36.281,2.513,2.513,0,0,1-1.986-.822,3.393,3.393,0,0,1-.725-2.32V5.629a3.873,3.873,0,0,1,.327-1.646,2.481,2.481,0,0,1,.943-1.09,2.63,2.63,0,0,1,1.424-.385,2.758,2.758,0,0,1,1.872.613,2.422,2.422,0,0,1,.8,1.69H24.9a1.146,1.146,0,0,0-.294-.839,1.211,1.211,0,0,0-.844-.255.921.921,0,0,0-.844.431,2.768,2.768,0,0,0-.281,1.375v.453a3.063,3.063,0,0,0,.257,1.463.941.941,0,0,0,.885.439,1.184,1.184,0,0,0,.813-.25,1.063,1.063,0,0,0,.3-.8Zm.475-.255a2.806,2.806,0,0,1,.277-1.268,1.98,1.98,0,0,1,.8-.855,2.4,2.4,0,0,1,1.217-.3,2.186,2.186,0,0,1,1.683.661,2.538,2.538,0,0,1,.615,1.8v.053a2.462,2.462,0,0,1-.617,1.764,2.192,2.192,0,0,1-1.672.653,2.217,2.217,0,0,1-1.63-.609,2.381,2.381,0,0,1-.664-1.65Zm1.481.092a1.769,1.769,0,0,0,.207.967.688.688,0,0,0,.611.308q.791,0,.809-1.217V6.579q0-1.279-.817-1.279-.743,0-.8,1.1ZM33.5,4.245l.048.558a1.612,1.612,0,0,1,1.358-.646,1.357,1.357,0,0,1,1.11.444,2.113,2.113,0,0,1,.38,1.336V9H34.91V6a.8.8,0,0,0-.145-.53.671.671,0,0,0-.527-.169.706.706,0,0,0-.646.343V9H32.111V4.245ZM39.7,7.664a.342.342,0,0,0-.2-.3,3.008,3.008,0,0,0-.751-.237,3.427,3.427,0,0,1-.914-.323,1.531,1.531,0,0,1-.549-.486A1.16,1.16,0,0,1,37.1,5.66a1.314,1.314,0,0,1,.541-1.079,2.227,2.227,0,0,1,1.415-.424,2.467,2.467,0,0,1,1.512.426A1.333,1.333,0,0,1,41.142,5.7H39.656q0-.571-.6-.571a.6.6,0,0,0-.391.13.4.4,0,0,0-.158.323.368.368,0,0,0,.193.321,1.827,1.827,0,0,0,.617.2,5.336,5.336,0,0,1,.745.189A1.353,1.353,0,0,1,41.133,7.62a1.245,1.245,0,0,1-.578,1.059,2.534,2.534,0,0,1-1.5.409,2.586,2.586,0,0,1-1.09-.22,1.822,1.822,0,0,1-.747-.6,1.353,1.353,0,0,1-.268-.8h1.384a.572.572,0,0,0,.22.481.9.9,0,0,0,.541.152.711.711,0,0,0,.455-.123A.394.394,0,0,0,39.7,7.664Zm4.953.822a1.527,1.527,0,0,1-1.27.6A1.5,1.5,0,0,1,42.2,8.633a1.913,1.913,0,0,1-.4-1.307V4.245h1.481V7.334a.532.532,0,0,0,.593.611.774.774,0,0,0,.725-.365V4.245h1.49V9H44.7ZM48.463,9H46.978V2.25h1.485ZM51.1,3.063V4.245h.782V5.273H51.1V7.449a.555.555,0,0,0,.1.374.519.519,0,0,0,.382.105,2.173,2.173,0,0,0,.369-.026V8.96a2.733,2.733,0,0,1-.835.127,1.551,1.551,0,0,1-1.129-.36,1.477,1.477,0,0,1-.365-1.094V5.273h-.606V4.245h.606V3.063ZM55.143,9A1.672,1.672,0,0,1,55,8.574a1.377,1.377,0,0,1-1.143.514,1.687,1.687,0,0,1-1.143-.406,1.294,1.294,0,0,1-.47-1.022,1.33,1.33,0,0,1,.571-1.169,2.91,2.91,0,0,1,1.661-.4h.457V5.843q0-.658-.567-.658a.463.463,0,0,0-.527.521H52.361a1.328,1.328,0,0,1,.587-1.119,2.465,2.465,0,0,1,1.5-.43,2.162,2.162,0,0,1,1.437.444,1.543,1.543,0,0,1,.541,1.217v2.1a2.156,2.156,0,0,0,.2,1V9Zm-.927-.967a.826.826,0,0,0,.459-.119.744.744,0,0,0,.261-.268v-.76h-.431q-.773,0-.773.694a.424.424,0,0,0,.136.327A.493.493,0,0,0,54.215,8.033Zm5.9-2.448-.488-.035a.876.876,0,0,0-.9.439V9H57.252V4.245h1.389l.048.611a1.147,1.147,0,0,1,1.042-.7,1.444,1.444,0,0,1,.413.053ZM28.026,18.658a2.867,2.867,0,0,1-.5,1.769,1.6,1.6,0,0,1-1.347.661,1.371,1.371,0,0,1-1.077-.479v2.219H23.623V16.245h1.384l.044.439a1.371,1.371,0,0,1,1.121-.527,1.612,1.612,0,0,1,1.367.648,2.9,2.9,0,0,1,.488,1.782Zm-1.481-.092q0-1.266-.738-1.266a.7.7,0,0,0-.7.378V19.55a.72.72,0,0,0,.712.4q.708,0,.729-1.222Zm5.01-.98-.488-.035a.876.876,0,0,0-.9.439V21H28.69V16.245h1.389l.048.611a1.147,1.147,0,0,1,1.042-.7,1.444,1.444,0,0,1,.413.053Zm.189.993a2.806,2.806,0,0,1,.277-1.268,1.98,1.98,0,0,1,.8-.855,2.4,2.4,0,0,1,1.217-.3,2.186,2.186,0,0,1,1.683.661,2.538,2.538,0,0,1,.615,1.8v.053a2.462,2.462,0,0,1-.617,1.764,2.192,2.192,0,0,1-1.672.653,2.217,2.217,0,0,1-1.63-.609,2.381,2.381,0,0,1-.664-1.65Zm1.481.092a1.769,1.769,0,0,0,.207.967.688.688,0,0,0,.611.308q.791,0,.809-1.217v-.149q0-1.279-.817-1.279-.743,0-.8,1.1ZM37.312,21V17.273h-.69V16.245h.69v-.378a1.643,1.643,0,0,1,.479-1.261,1.893,1.893,0,0,1,1.345-.448,2.945,2.945,0,0,1,.694.092l0,1.09a1.353,1.353,0,0,0-.365-.04q-.672,0-.672.58v.365h.927v1.028H38.8V21Zm5.234.088a2.444,2.444,0,0,1-1.771-.653,2.254,2.254,0,0,1-.677-1.7v-.123a2.92,2.92,0,0,1,.27-1.288,1.978,1.978,0,0,1,.789-.864,2.381,2.381,0,0,1,1.23-.305,2.058,2.058,0,0,1,1.582.622,2.444,2.444,0,0,1,.58,1.734v.576H41.605a1.067,1.067,0,0,0,.347.628,1.033,1.033,0,0,0,.694.229,1.331,1.331,0,0,0,1.1-.492l.677.8a1.892,1.892,0,0,1-.784.609A2.651,2.651,0,0,1,42.546,21.088ZM42.379,17.3q-.65,0-.773.861H43.1v-.114a.734.734,0,0,0-.18-.552A.717.717,0,0,0,42.379,17.3Zm5.256,2.364a.342.342,0,0,0-.2-.3,3.008,3.008,0,0,0-.751-.237,3.427,3.427,0,0,1-.914-.323,1.531,1.531,0,0,1-.549-.486,1.16,1.16,0,0,1-.189-.655,1.314,1.314,0,0,1,.541-1.079,2.227,2.227,0,0,1,1.415-.424,2.467,2.467,0,0,1,1.512.426,1.333,1.333,0,0,1,.571,1.121H47.586q0-.571-.6-.571a.6.6,0,0,0-.391.13.4.4,0,0,0-.158.323.368.368,0,0,0,.193.321,1.827,1.827,0,0,0,.617.2,5.336,5.336,0,0,1,.745.189,1.353,1.353,0,0,1,1.072,1.323,1.245,1.245,0,0,1-.578,1.059,2.534,2.534,0,0,1-1.5.409,2.586,2.586,0,0,1-1.09-.22,1.822,1.822,0,0,1-.747-.6,1.353,1.353,0,0,1-.268-.8h1.384a.572.572,0,0,0,.22.481.9.9,0,0,0,.541.152.711.711,0,0,0,.455-.123A.394.394,0,0,0,47.635,19.664Zm1.934-1.085a2.806,2.806,0,0,1,.277-1.268,1.98,1.98,0,0,1,.8-.855,2.4,2.4,0,0,1,1.217-.3,2.186,2.186,0,0,1,1.683.661,2.538,2.538,0,0,1,.615,1.8v.053a2.462,2.462,0,0,1-.617,1.764,2.192,2.192,0,0,1-1.672.653,2.217,2.217,0,0,1-1.63-.609,2.381,2.381,0,0,1-.664-1.65Zm1.481.092a1.769,1.769,0,0,0,.207.967.688.688,0,0,0,.611.308q.791,0,.809-1.217v-.149q0-1.279-.817-1.279-.743,0-.8,1.1Zm6.636-1.085L57.2,17.55a.876.876,0,0,0-.9.439V21H54.82V16.245h1.389l.048.611a1.147,1.147,0,0,1,1.042-.7,1.444,1.444,0,0,1,.413.053Z" transform="translate(400 2302)" fill="#12263f"/>
    <path id="Trazado_152315" data-name="Trazado 152315" d="M13.951,13V4.469h3.064a4.339,4.339,0,0,1,2.5.6,2.008,2.008,0,0,1,.858,1.752,2.03,2.03,0,0,1-.3,1.131,1.775,1.775,0,0,1-.9.691A1.8,1.8,0,0,1,20.2,9.3a1.908,1.908,0,0,1,.357,1.172,2.259,2.259,0,0,1-.794,1.884A3.778,3.778,0,0,1,17.414,13Zm2.057-3.627v2.045h1.348a1.282,1.282,0,0,0,.855-.255.892.892,0,0,0,.3-.718.946.946,0,0,0-1.061-1.072Zm0-1.348H17.08a1.523,1.523,0,0,0,.961-.247.876.876,0,0,0,.287-.711.92.92,0,0,0-.311-.779,1.662,1.662,0,0,0-1-.238H16.008ZM23.684,13H21.7V6.66h1.98Zm-2.1-7.975a.881.881,0,0,1,.3-.691,1.3,1.3,0,0,1,1.582,0,.937.937,0,0,1,0,1.383,1.3,1.3,0,0,1-1.582,0A.881.881,0,0,1,21.586,5.025Zm9.2,4.857a3.864,3.864,0,0,1-.645,2.4,2.159,2.159,0,0,1-1.816.838,1.873,1.873,0,0,1-1.559-.768l-.082.65h-1.77V4h1.975V7.17a1.808,1.808,0,0,1,1.424-.627,2.16,2.16,0,0,1,1.828.85,3.884,3.884,0,0,1,.645,2.391ZM28.8,9.757a2.577,2.577,0,0,0-.243-1.3.82.82,0,0,0-.747-.389.945.945,0,0,0-.926.509v2.515a.951.951,0,0,0,.938.5.839.839,0,0,0,.885-.679A4.873,4.873,0,0,0,28.8,9.757ZM33.738,13h-1.98V4h1.98Zm3.3,0h-1.98V6.66h1.98Zm-2.1-7.975a.881.881,0,0,1,.3-.691,1.3,1.3,0,0,1,1.582,0,.937.937,0,0,1,0,1.383,1.3,1.3,0,0,1-1.582,0A.881.881,0,0,1,34.939,5.025ZM38,9.771a3.742,3.742,0,0,1,.369-1.69,2.64,2.64,0,0,1,1.061-1.14,3.194,3.194,0,0,1,1.623-.4,2.915,2.915,0,0,1,2.244.882,3.384,3.384,0,0,1,.82,2.4v.07a3.283,3.283,0,0,1-.823,2.353,2.923,2.923,0,0,1-2.229.87,2.956,2.956,0,0,1-2.174-.812,3.174,3.174,0,0,1-.885-2.2Zm1.975.123a2.359,2.359,0,0,0,.275,1.289.917.917,0,0,0,.814.41q1.055,0,1.078-1.623v-.2q0-1.705-1.09-1.705-.99,0-1.072,1.471Zm7.313-4.811V6.66h1.043V8.031H47.291v2.9a.741.741,0,0,0,.129.5.691.691,0,0,0,.51.141,2.9,2.9,0,0,0,.492-.035v1.412a3.644,3.644,0,0,1-1.113.17,2.069,2.069,0,0,1-1.506-.48,1.969,1.969,0,0,1-.486-1.459V8.031h-.809V6.66h.809V5.084Zm4.887,8.033a3.259,3.259,0,0,1-2.361-.87,3,3,0,0,1-.9-2.265V9.818a3.893,3.893,0,0,1,.36-1.717A2.637,2.637,0,0,1,50.326,6.95a3.175,3.175,0,0,1,1.641-.407,2.744,2.744,0,0,1,2.109.829,3.258,3.258,0,0,1,.773,2.312v.768H50.924a1.423,1.423,0,0,0,.463.838,1.377,1.377,0,0,0,.926.3,1.775,1.775,0,0,0,1.465-.656L54.68,12a2.522,2.522,0,0,1-1.046.812A3.534,3.534,0,0,1,52.178,13.117Zm-.223-5.051q-.867,0-1.031,1.148h1.992V9.063a.978.978,0,0,0-.24-.735A.956.956,0,0,0,51.955,8.066Zm6.369,3.527a.878.878,0,0,0,.645-.226.827.827,0,0,0,.223-.63h1.852a2.192,2.192,0,0,1-.747,1.711,2.779,2.779,0,0,1-1.925.668,2.814,2.814,0,0,1-2.18-.867,3.417,3.417,0,0,1-.8-2.4V9.766a3.862,3.862,0,0,1,.354-1.7,2.581,2.581,0,0,1,1.022-1.131,3.049,3.049,0,0,1,1.582-.4,2.744,2.744,0,0,1,1.963.686,2.432,2.432,0,0,1,.727,1.857H59.191a1.084,1.084,0,0,0-.24-.756.829.829,0,0,0-.645-.264q-.768,0-.9.979a6.9,6.9,0,0,0-.041.855,2.712,2.712,0,0,0,.229,1.324A.791.791,0,0,0,58.324,11.594ZM65.449,13a2.23,2.23,0,0,1-.187-.568,1.836,1.836,0,0,1-1.523.686,2.249,2.249,0,0,1-1.523-.542,1.725,1.725,0,0,1-.627-1.362,1.773,1.773,0,0,1,.762-1.559,3.881,3.881,0,0,1,2.215-.527h.609V8.791q0-.877-.756-.877a.618.618,0,0,0-.7.695H61.74a1.77,1.77,0,0,1,.782-1.492,3.287,3.287,0,0,1,2-.574,2.882,2.882,0,0,1,1.916.592,2.058,2.058,0,0,1,.721,1.623v2.807a2.874,2.874,0,0,0,.27,1.336V13Zm-1.236-1.289a1.1,1.1,0,0,0,.612-.158.992.992,0,0,0,.349-.357V10.182H64.6q-1.031,0-1.031.926a.565.565,0,0,0,.182.437A.657.657,0,0,0,64.213,11.711Z" transform="translate(608 2306)" fill="#12263f"/>
    <path id="Trazado_152317" data-name="Trazado 152317" d="M5.156,9.982H4.043V13H1.986V4.469H5.344a3.747,3.747,0,0,1,2.373.673,2.281,2.281,0,0,1,.855,1.9,2.77,2.77,0,0,1-.36,1.475,2.558,2.558,0,0,1-1.128.948l1.781,3.445V13h-2.2ZM4.043,8.4h1.3a1.168,1.168,0,0,0,.882-.308,1.192,1.192,0,0,0,.3-.861,1.206,1.206,0,0,0-.3-.866,1.157,1.157,0,0,0-.879-.314h-1.3Zm8.748,4.717a3.259,3.259,0,0,1-2.361-.87,3,3,0,0,1-.9-2.265V9.818A3.893,3.893,0,0,1,9.888,8.1,2.637,2.637,0,0,1,10.939,6.95a3.175,3.175,0,0,1,1.641-.407,2.744,2.744,0,0,1,2.109.829,3.258,3.258,0,0,1,.773,2.312v.768H11.537a1.423,1.423,0,0,0,.463.838,1.377,1.377,0,0,0,.926.3,1.775,1.775,0,0,0,1.465-.656l.9,1.066a2.522,2.522,0,0,1-1.046.812A3.534,3.534,0,0,1,12.791,13.117Zm-.223-5.051q-.867,0-1.031,1.148h1.992V9.063a.978.978,0,0,0-.24-.735A.956.956,0,0,0,12.568,8.066Zm7.008,3.152a.456.456,0,0,0-.264-.4,4.011,4.011,0,0,0-1-.316,4.569,4.569,0,0,1-1.219-.431,2.041,2.041,0,0,1-.732-.647,1.546,1.546,0,0,1-.252-.873,1.752,1.752,0,0,1,.721-1.438,2.969,2.969,0,0,1,1.887-.565,3.289,3.289,0,0,1,2.016.568,1.777,1.777,0,0,1,.762,1.494h-1.98q0-.762-.8-.762a.8.8,0,0,0-.521.173.535.535,0,0,0-.211.431.491.491,0,0,0,.258.428,2.436,2.436,0,0,0,.823.27,7.114,7.114,0,0,1,.993.252,1.8,1.8,0,0,1,1.43,1.764,1.66,1.66,0,0,1-.771,1.412,3.379,3.379,0,0,1-2,.545,3.448,3.448,0,0,1-1.453-.293,2.43,2.43,0,0,1-1-.8,1.8,1.8,0,0,1-.357-1.061h1.846a.763.763,0,0,0,.293.642,1.205,1.205,0,0,0,.721.2.948.948,0,0,0,.606-.164A.525.525,0,0,0,19.576,11.219Zm6.6,1.1a2.036,2.036,0,0,1-1.693.8,2,2,0,0,1-1.579-.606,2.551,2.551,0,0,1-.536-1.743V6.66h1.975v4.119a.71.71,0,0,0,.791.814,1.032,1.032,0,0,0,.967-.486V6.66H28.09V13H26.238ZM31.037,6.66,31.1,7.4a2.18,2.18,0,0,1,1.811-.861,1.6,1.6,0,0,1,1.623.955A2.11,2.11,0,0,1,36.4,6.543q1.928,0,1.98,2.332V13H36.4V9a1.209,1.209,0,0,0-.164-.709.7.7,0,0,0-.6-.223.936.936,0,0,0-.873.521l.006.082V13h-1.98V9.01a1.27,1.27,0,0,0-.158-.721.7.7,0,0,0-.6-.223.947.947,0,0,0-.867.521V13H29.186V6.66ZM41.59,13h-1.98V6.66h1.98Zm-2.1-7.975a.881.881,0,0,1,.3-.691,1.3,1.3,0,0,1,1.582,0,.937.937,0,0,1,0,1.383,1.3,1.3,0,0,1-1.582,0A.881.881,0,0,1,39.492,5.025Zm7.148,3.422L45.99,8.4a1.168,1.168,0,0,0-1.2.586V13H42.82V6.66h1.852l.064.814a1.529,1.529,0,0,1,1.389-.932,1.926,1.926,0,0,1,.551.07ZM52.207,6.66l.064.744a2.18,2.18,0,0,1,1.811-.861,1.6,1.6,0,0,1,1.623.955,2.11,2.11,0,0,1,1.863-.955q1.928,0,1.98,2.332V13h-1.98V9a1.209,1.209,0,0,0-.164-.709.7.7,0,0,0-.6-.223.936.936,0,0,0-.873.521l.006.082V13h-1.98V9.01a1.27,1.27,0,0,0-.158-.721.7.7,0,0,0-.6-.223.947.947,0,0,0-.867.521V13H50.355V6.66ZM64.248,13a2.23,2.23,0,0,1-.187-.568,1.836,1.836,0,0,1-1.523.686,2.249,2.249,0,0,1-1.523-.542,1.725,1.725,0,0,1-.627-1.362,1.773,1.773,0,0,1,.762-1.559,3.881,3.881,0,0,1,2.215-.527h.609V8.791q0-.877-.756-.877a.618.618,0,0,0-.7.695H60.539a1.77,1.77,0,0,1,.782-1.492,3.287,3.287,0,0,1,2-.574,2.882,2.882,0,0,1,1.916.592,2.058,2.058,0,0,1,.721,1.623v2.807a2.874,2.874,0,0,0,.27,1.336V13Zm-1.236-1.289a1.1,1.1,0,0,0,.612-.158.992.992,0,0,0,.349-.357V10.182H63.4q-1.031,0-1.031.926a.565.565,0,0,0,.182.437A.657.657,0,0,0,63.012,11.711Zm6.334-6.627V6.66h1.043V8.031H69.346v2.9a.741.741,0,0,0,.129.5.691.691,0,0,0,.51.141,2.9,2.9,0,0,0,.492-.035v1.412a3.644,3.644,0,0,1-1.113.17,2.069,2.069,0,0,1-1.506-.48,1.969,1.969,0,0,1-.486-1.459V8.031h-.809V6.66h.809V5.084Zm4.887,8.033a3.259,3.259,0,0,1-2.361-.87,3,3,0,0,1-.9-2.265V9.818a3.893,3.893,0,0,1,.36-1.717A2.637,2.637,0,0,1,72.381,6.95a3.175,3.175,0,0,1,1.641-.407,2.744,2.744,0,0,1,2.109.829A3.258,3.258,0,0,1,76.9,9.684v.768H72.979a1.423,1.423,0,0,0,.463.838,1.377,1.377,0,0,0,.926.3,1.775,1.775,0,0,0,1.465-.656l.9,1.066a2.522,2.522,0,0,1-1.046.812A3.534,3.534,0,0,1,74.232,13.117ZM74.01,8.066q-.867,0-1.031,1.148h1.992V9.063a.978.978,0,0,0-.24-.735A.956.956,0,0,0,74.01,8.066Zm7.523.381-.65-.047a1.168,1.168,0,0,0-1.2.586V13H77.713V6.66h1.852l.064.814a1.529,1.529,0,0,1,1.389-.932,1.926,1.926,0,0,1,.551.07ZM84.328,13h-1.98V6.66h1.98Zm-2.1-7.975a.881.881,0,0,1,.3-.691,1.3,1.3,0,0,1,1.582,0,.937.937,0,0,1,0,1.383,1.3,1.3,0,0,1-1.582,0A.881.881,0,0,1,82.23,5.025ZM89.115,13a2.23,2.23,0,0,1-.187-.568,1.836,1.836,0,0,1-1.523.686,2.249,2.249,0,0,1-1.523-.542,1.725,1.725,0,0,1-.627-1.362,1.773,1.773,0,0,1,.762-1.559,3.881,3.881,0,0,1,2.215-.527h.609V8.791q0-.877-.756-.877a.618.618,0,0,0-.7.695H85.406a1.77,1.77,0,0,1,.782-1.492,3.287,3.287,0,0,1,2-.574,2.882,2.882,0,0,1,1.916.592,2.058,2.058,0,0,1,.721,1.623v2.807a2.874,2.874,0,0,0,.27,1.336V13Zm-1.236-1.289a1.1,1.1,0,0,0,.612-.158.992.992,0,0,0,.349-.357V10.182h-.574q-1.031,0-1.031.926a.565.565,0,0,0,.182.437A.657.657,0,0,0,87.879,11.711ZM94,13h-1.98V4H94Z" transform="translate(491 2372)" fill="#12263f"/>
    <path id="Trazado_152313" data-name="Trazado 152313" d="M40.14,10.732a.845.845,0,0,0-.319-.7A3.969,3.969,0,0,0,38.7,9.508a10.765,10.765,0,0,1-1.312-.521,2.486,2.486,0,0,1-1.658-2.238A2.007,2.007,0,0,1,36.141,5.5a2.672,2.672,0,0,1,1.169-.844,4.549,4.549,0,0,1,1.7-.3,3.979,3.979,0,0,1,1.649.328,2.611,2.611,0,0,1,1.134.935A2.441,2.441,0,0,1,42.2,7H40.146a1.031,1.031,0,0,0-.319-.809,1.245,1.245,0,0,0-.864-.287,1.4,1.4,0,0,0-.87.243.716.716,0,0,0,.032,1.213,4.433,4.433,0,0,0,1.236.551,7.574,7.574,0,0,1,1.453.612,2.442,2.442,0,0,1,1.383,2.2,2.083,2.083,0,0,1-.844,1.758,3.753,3.753,0,0,1-2.314.639,4.592,4.592,0,0,1-1.878-.372,2.831,2.831,0,0,1-1.266-1.02,2.657,2.657,0,0,1-.425-1.491h2.063a1.308,1.308,0,0,0,.354,1.011,1.676,1.676,0,0,0,1.151.325,1.324,1.324,0,0,0,.806-.22A.725.725,0,0,0,40.14,10.732ZM45.243,13h-1.98V6.66h1.98Zm-2.1-7.975a.881.881,0,0,1,.3-.691,1.3,1.3,0,0,1,1.582,0,.937.937,0,0,1,0,1.383,1.3,1.3,0,0,1-1.582,0A.881.881,0,0,1,43.146,5.025Z" transform="translate(456 2292)" fill="#fff"/>
    <path id="Trazado_152316" data-name="Trazado 152316" d="M40.672,12H38.8L36.026,7.134V12H34.141V4.18h1.885l2.766,4.866V4.18h1.88Zm.881-2.959a3.43,3.43,0,0,1,.338-1.55,2.42,2.42,0,0,1,.972-1.045,2.928,2.928,0,0,1,1.488-.365,2.672,2.672,0,0,1,2.057.808,3.1,3.1,0,0,1,.752,2.2v.064a3.01,3.01,0,0,1-.755,2.156,2.679,2.679,0,0,1-2.044.8,2.71,2.71,0,0,1-1.993-.744,2.91,2.91,0,0,1-.811-2.017Zm1.81.113a2.162,2.162,0,0,0,.252,1.182.841.841,0,0,0,.747.376q.967,0,.988-1.488V9.041q0-1.563-1-1.563-.908,0-.983,1.348Z" transform="translate(506 2347)" fill="#fff"/>
  </g>
  <path id="Trazado_152304" data-name="Trazado 152304" d="M1.27,0V-14.219H5.645A6.644,6.644,0,0,1,9-13.374a5.89,5.89,0,0,1,2.31,2.4,7.41,7.41,0,0,1,.83,3.54v.654a7.431,7.431,0,0,1-.815,3.525,5.84,5.84,0,0,1-2.3,2.393A6.694,6.694,0,0,1,5.674,0ZM4.2-11.846v9.492H5.615A3.181,3.181,0,0,0,8.242-3.477,5.075,5.075,0,0,0,9.17-6.689v-.752a5.156,5.156,0,0,0-.9-3.286,3.171,3.171,0,0,0-2.627-1.118ZM17.383,0h-2.93V-14.219h2.93ZM28.125-2.93H22.988L22.012,0H18.9l5.293-14.219H26.9L32.227,0H29.111ZM23.779-5.3h3.555l-1.787-5.322ZM44.8-1.8a5.085,5.085,0,0,1-2.236,1.47,9.365,9.365,0,0,1-3.2.522A6.345,6.345,0,0,1,36.128-.61a5.374,5.374,0,0,1-2.148-2.339,8.232,8.232,0,0,1-.776-3.6V-7.52a8.742,8.742,0,0,1,.718-3.687,5.31,5.31,0,0,1,2.07-2.383,5.964,5.964,0,0,1,3.169-.825,5.939,5.939,0,0,1,3.955,1.206A5.154,5.154,0,0,1,44.8-9.7H41.953a2.835,2.835,0,0,0-.864-1.787,2.76,2.76,0,0,0-1.841-.566,2.6,2.6,0,0,0-2.275,1.123,5.905,5.905,0,0,0-.791,3.34v.908a5.622,5.622,0,0,0,.85,3.379,2.909,2.909,0,0,0,2.49,1.143,3.25,3.25,0,0,0,2.354-.7V-5.312H39.209V-7.471h5.6Zm7.637-3.408H50.107V0h-2.93V-14.219h5.283A5.972,5.972,0,0,1,56.348-13.1a3.876,3.876,0,0,1,1.367,3.174,4.374,4.374,0,0,1-.63,2.427,4.3,4.3,0,0,1-1.909,1.548L58.252-.137V0H55.107ZM50.107-7.578h2.363A2.42,2.42,0,0,0,54.18-8.14a2.007,2.007,0,0,0,.605-1.548,2.148,2.148,0,0,0-.571-1.582,2.374,2.374,0,0,0-1.753-.576H50.107ZM67.969-2.93H62.832L61.855,0H58.74l5.293-14.219h2.715L72.07,0H68.955ZM63.623-5.3h3.555l-1.787-5.322Zm13.6-8.916L80.879-3.906l3.633-10.312h3.848V0H85.42V-3.887l.293-6.709L81.875,0H79.863L76.035-10.586l.293,6.7V0H73.4V-14.219ZM98.945-2.93H93.809L92.832,0H89.717L95.01-14.219h2.715L103.047,0H99.932ZM94.6-5.3h3.555l-1.787-5.322ZM109.355,0V-14.219h4.375a6.644,6.644,0,0,1,3.354.845,5.89,5.89,0,0,1,2.31,2.4,7.41,7.41,0,0,1,.83,3.54v.654a7.431,7.431,0,0,1-.815,3.525,5.84,5.84,0,0,1-2.3,2.393A6.694,6.694,0,0,1,113.76,0Zm2.93-11.846v9.492H113.7a3.181,3.181,0,0,0,2.627-1.123,5.075,5.075,0,0,0,.928-3.213v-.752a5.156,5.156,0,0,0-.9-3.286,3.171,3.171,0,0,0-2.627-1.118Zm18.623,5.684h-5.625v3.809h6.6V0h-9.531V-14.219h9.512v2.373h-6.582v3.389h5.625Zm16.23.352h-5.625V0h-2.93V-14.219h9.258v2.373h-6.328v3.672h5.625Zm5.332,3.457h6.221V0h-9.15V-14.219h2.93ZM170.9-14.219v9.365a4.8,4.8,0,0,1-1.46,3.691A5.629,5.629,0,0,1,165.449.2a5.692,5.692,0,0,1-3.955-1.318A4.713,4.713,0,0,1,160-4.746v-9.473h2.93v9.385A2.709,2.709,0,0,0,163.6-2.8a2.568,2.568,0,0,0,1.851.64q2.471,0,2.51-2.6v-9.463Zm8.135,0h2.93v9.844a4.707,4.707,0,0,1-.6,2.4,4.076,4.076,0,0,1-1.694,1.606A5.293,5.293,0,0,1,177.2.2a5.031,5.031,0,0,1-3.516-1.147,4.169,4.169,0,0,1-1.26-3.247h2.949a2.286,2.286,0,0,0,.439,1.543,1.758,1.758,0,0,0,1.387.5,1.679,1.679,0,0,0,1.338-.576,2.434,2.434,0,0,0,.5-1.641Zm17.119,7.432a8.583,8.583,0,0,1-.742,3.682,5.589,5.589,0,0,1-2.124,2.441A5.875,5.875,0,0,1,190.117.2a5.915,5.915,0,0,1-3.154-.85,5.644,5.644,0,0,1-2.148-2.427,8.338,8.338,0,0,1-.771-3.628v-.7a8.538,8.538,0,0,1,.757-3.7,5.635,5.635,0,0,1,2.139-2.451,5.883,5.883,0,0,1,3.159-.854,5.883,5.883,0,0,1,3.159.854,5.635,5.635,0,0,1,2.139,2.451,8.514,8.514,0,0,1,.757,3.687Zm-2.969-.645a5.984,5.984,0,0,0-.8-3.4,2.61,2.61,0,0,0-2.285-1.162,2.611,2.611,0,0,0-2.275,1.147,5.915,5.915,0,0,0-.811,3.364v.693a6.058,6.058,0,0,0,.8,3.379,2.6,2.6,0,0,0,2.3,1.2,2.579,2.579,0,0,0,2.266-1.157,6.023,6.023,0,0,0,.8-3.374Z" transform="translate(121.5 137)" fill="#fff"/>
</svg>
